<?xml version="1.0" encoding="UTF-8" standalone="no"?>
<!-- Generator: Adobe Illustrator 22.1.0, SVG Export Plug-In . SVG Version: 6.00 Build 0)  -->

<svg
   version="1.1"
   id="レイヤー_1"
   x="0px"
   y="0px"
   viewBox="0 0 374.99999 374.99999"
   xml:space="preserve"
   sodipodi:docname="iron_high_2.svg"
   width="375"
   height="375"
   inkscape:version="1.3.2 (091e20ef0f, 2023-11-25, custom)"
   xmlns:inkscape="http://www.inkscape.org/namespaces/inkscape"
   xmlns:sodipodi="http://sodipodi.sourceforge.net/DTD/sodipodi-0.dtd"
   xmlns="http://www.w3.org/2000/svg"
   xmlns:svg="http://www.w3.org/2000/svg"><defs
   id="defs2" /><sodipodi:namedview
   id="namedview2"
   pagecolor="#ffffff"
   bordercolor="#000000"
   borderopacity="0.25"
   inkscape:showpageshadow="2"
   inkscape:pageopacity="0.0"
   inkscape:pagecheckerboard="0"
   inkscape:deskcolor="#d1d1d1"
   inkscape:zoom="1.669038"
   inkscape:cx="208.80292"
   inkscape:cy="175.25065"
   inkscape:window-width="1920"
   inkscape:window-height="1012"
   inkscape:window-x="0"
   inkscape:window-y="32"
   inkscape:window-maximized="1"
   inkscape:current-layer="g2" />
<style
   type="text/css"
   id="style1">
	.st0{fill:none;stroke:#000000;stroke-width:1.5475;}
</style>
<g
   id="g2">
	
	<path
   class="st0"
   d="m 129.45446,80.465315 164.93551,52.582175 38.61504,161.44374 H 41.749028 c 0,-35.12326 42.106824,-115.84512 115.845112,-115.84512 73.7383,0 143.7794,-10.47536 143.7794,-10.47536"
   id="path2"
   style="stroke-width:12.5;stroke-dasharray:none;stroke-linecap:round" />
<path
   d="m 200.43475,258.30607 v 6.50891 h -19.93353 v -6.50891 z m -15.45867,-5.6953 c -3.25444,0 -9.55995,-0.2034 -11.59398,-0.2034 0.20339,1.42383 0.20339,4.06807 0.20339,6.1021 v 5.6953 c 0,2.44084 0,5.28848 -0.40681,7.32252 2.44086,0 6.91572,-0.4068 10.17018,-0.4068 h 12.00081 c 4.47487,0 10.37357,0 13.42462,0.20342 -0.81361,-2.23746 -0.81361,-5.08509 -0.81361,-7.52592 v -5.2885 c 0,-2.03403 0.20341,-4.06807 0.4068,-6.1021 -1.42382,0 -8.33954,0.2034 -12.0008,0.2034 z m 0.61022,-33.35817 c -4.47488,0 -15.25526,-0.40679 -16.27229,-0.40679 0.20341,2.23744 0.40683,4.27148 0.40683,6.5089 v 6.71233 c 0,1.83061 -0.40683,4.67828 -0.40683,6.3055 3.05107,0 10.17018,-0.20339 15.25527,-0.20339 h 12.0008 c 4.88168,0 14.64505,0.20339 16.47569,0.20339 -0.61022,-2.23743 -0.61022,-4.47487 -0.61022,-6.71231 v -6.1021 c 0,-2.23746 0,-4.47488 0.40681,-6.71232 -2.44084,0.40679 -9.96677,0.40679 -14.84844,0.40679 z m 19.32333,6.30553 v 6.50891 h -27.86627 v -6.50891 z m -24.205,16.67909 c -5.2885,0 -20.34036,-0.20343 -23.79822,-0.61024 0,1.42383 0,8.94976 0,13.01783 v 10.17017 c 0,4.06807 0,9.35656 -0.40682,12.0008 h 8.54296 c -0.20341,-3.05105 -0.61022,-10.98379 -0.61022,-17.49269 V 248.3393 h 52.6815 v 18.50971 c 0,1.83063 -0.4068,2.23744 -1.62722,2.23744 -1.22043,0 -5.08509,-0.6102 -6.5089,-0.81359 l 3.25444,8.13614 c 1.42384,0.2034 5.6953,0 7.72935,0 3.05104,0 5.08508,-1.62723 5.08508,-5.28851 0,-3.05105 -0.2034,-7.93272 -0.2034,-10.78039 v -8.13614 c 0,-3.45785 0,-6.9157 0,-10.57698 -3.05105,0.20343 -16.27228,0.61024 -24.20502,0.61024 z m 6.5089,-41.49431 c 0,1.62722 0.20341,5.8987 0.20341,7.93273 h -8.13615 c -6.30552,0 -19.93354,-0.40681 -24.40842,-0.81361 v 7.93274 c 4.67828,-0.40681 18.1029,-0.61024 24.20501,-0.61024 h 28.27308 c 6.91572,0 15.66207,0 20.74716,0.61024 v -7.93274 c -4.88168,0.81361 -13.83144,0.81361 -20.74716,0.81361 h -12.00078 c 0,-1.22044 0,-2.84765 0,-3.86466 1.42381,-0.40681 2.23742,-1.01702 2.23742,-2.23744 0,-1.01702 -1.22041,-1.42382 -1.83063,-1.42382 z"
   id="path1"
   style="stroke-width:2.03404" /></g>
</svg>
