<?xml version="1.0" encoding="UTF-8" standalone="no"?>
<!-- Generator: Adobe Illustrator 22.1.0, SVG Export Plug-In . SVG Version: 6.00 Build 0)  -->

<svg
   version="1.1"
   id="レイヤー_1"
   x="0px"
   y="0px"
   viewBox="0 0 374.99999 374.99999"
   xml:space="preserve"
   sodipodi:docname="iron_medium_cloth.svg"
   width="375"
   height="375"
   inkscape:version="1.3.2 (091e20ef0f, 2023-11-25, custom)"
   xmlns:inkscape="http://www.inkscape.org/namespaces/inkscape"
   xmlns:sodipodi="http://sodipodi.sourceforge.net/DTD/sodipodi-0.dtd"
   xmlns="http://www.w3.org/2000/svg"
   xmlns:svg="http://www.w3.org/2000/svg"><defs
   id="defs2" /><sodipodi:namedview
   id="namedview2"
   pagecolor="#ffffff"
   bordercolor="#000000"
   borderopacity="0.25"
   inkscape:showpageshadow="2"
   inkscape:pageopacity="0.0"
   inkscape:pagecheckerboard="0"
   inkscape:deskcolor="#d1d1d1"
   inkscape:zoom="1.669038"
   inkscape:cx="208.80292"
   inkscape:cy="175.25065"
   inkscape:window-width="2560"
   inkscape:window-height="1012"
   inkscape:window-x="0"
   inkscape:window-y="32"
   inkscape:window-maximized="1"
   inkscape:current-layer="g2" />
<style
   type="text/css"
   id="style1">
	.st0{fill:none;stroke:#000000;stroke-width:1.5475;}
</style>
<g
   id="g2">
	
	<path
   class="st0"
   d="m 129.45446,80.465315 164.93551,52.582175 38.61504,161.44374 H 41.749028 c 0,-35.12326 42.106824,-115.84512 115.845112,-115.84512 73.7383,0 143.7794,-10.47536 143.7794,-10.47536"
   id="path2"
   style="stroke-width:12.5;stroke-dasharray:none;stroke-linecap:round" />
<path
   d="m 187.18156,225.56881 v 17.41388 h -20.01595 v -17.41388 z m -0.4003,-25.01994 c 0.20015,3.40272 0.20015,12.00957 0.20015,18.01436 h -10.60845 c -4.60367,0 -13.61085,0 -17.8142,-0.40032 0.20016,3.40271 0.20016,6.80542 0.20016,10.4083 v 12.61005 c 0,4.40351 0,8.80702 -0.40032,13.21053 h 9.00717 c 0,-1.40112 -0.20015,-3.20255 -0.20015,-4.20335 h 20.01595 c 0,9.00718 -0.60047,21.61723 -0.80063,26.82138 h 9.80782 c -0.40032,-5.80463 -0.60049,-17.8142 -0.60049,-26.82138 h 20.01597 c 0,1.40111 -0.20018,2.80223 -0.20018,4.20335 h 9.20734 c -0.40031,-4.40351 -0.40031,-8.80702 -0.40031,-13.41069 V 229.572 c 0,-4.00319 0,-7.80621 0.20016,-11.8094 -4.60366,0.40031 -15.01197,0.80063 -20.81658,0.80063 h -8.20656 c 0,-2.40191 0.20017,-11.60926 0.20017,-13.21053 1.80143,-1.0008 2.80223,-1.60127 2.80223,-2.60208 0,-1.00079 -1.20096,-1.20096 -2.20175,-1.40112 z m 28.62281,25.01994 v 17.41388 h -20.01596 v -17.41388 z"
   id="path1-3"
   style="stroke-width:2.0016" /><path
   d="m 48.46519,337.33449 c 34.936861,0 34.936861,-18.88541 69.87373,-18.88541 34.93683,0 44.37801,18.88541 69.87368,18.88541 25.49567,0 34.9369,-18.88541 69.87371,-18.88541 34.93685,0 34.93685,18.88541 69.87374,18.88541"
   style="fill:none;fill-opacity:1;fill-rule:evenodd;stroke:#000000;stroke-width:12.5;stroke-linecap:round;stroke-linejoin:miter;stroke-miterlimit:4;stroke-dasharray:none;stroke-opacity:1"
   id="path650"
   sodipodi:nodetypes="cszsc" /></g>
</svg>
