<?xml version="1.0" encoding="UTF-8" standalone="no"?>
<!-- Created with Inkscape (http://www.inkscape.org/) -->

<svg
   version="1.0"
   x="0.0000000"
   y="0.0000000"
   width="375.00000"
   height="375.00000"
   id="svg559"
   sodipodi:docname="iron_medium.svg"
   inkscape:version="1.2.2 (b0a8486541, 2022-12-01)"
   xmlns:inkscape="http://www.inkscape.org/namespaces/inkscape"
   xmlns:sodipodi="http://sodipodi.sourceforge.net/DTD/sodipodi-0.dtd"
   xmlns="http://www.w3.org/2000/svg"
   xmlns:svg="http://www.w3.org/2000/svg">
  <sodipodi:namedview
     id="namedview11227"
     pagecolor="#ffffff"
     bordercolor="#000000"
     borderopacity="0.25"
     inkscape:showpageshadow="2"
     inkscape:pageopacity="0.0"
     inkscape:pagecheckerboard="0"
     inkscape:deskcolor="#d1d1d1"
     showgrid="false"
     inkscape:zoom="2.2186667"
     inkscape:cx="97.58113"
     inkscape:cy="187.72536"
     inkscape:window-width="1920"
     inkscape:window-height="1011"
     inkscape:window-x="0"
     inkscape:window-y="32"
     inkscape:window-maximized="1"
     inkscape:current-layer="svg559" />
  <defs
     id="defs561">
    <linearGradient
       id="linearGradient1651">
      <stop
         style="stop-color:#000000;stop-opacity:1.0000000"
         offset="0.0000000"
         id="stop1652" />
      <stop
         style="stop-color:#ffffff;stop-opacity:1.0000000"
         offset="1.0000000"
         id="stop1653" />
    </linearGradient>
  </defs>
  <path
     d="M 183.92461,235.00000 C 183.92461,224.64466 176.19042,216.25000 166.64980,216.25000 C 157.10919,216.25000 149.37500,224.64466 149.37500,235.00000 C 149.37500,245.35534 157.10919,253.75000 166.64980,253.75000 C 176.19042,253.75000 183.92461,245.35534 183.92461,235.00000 L 183.92461,235.00000 z "
     style="fill:#000000;fill-opacity:1;fill-rule:evenodd;stroke:#000000;stroke-width:1pt;stroke-linecap:butt;stroke-linejoin:miter;stroke-opacity:1"
     id="path1649" />
  <path
     d="M 256.02481,235.00000 C 256.02481,224.64466 248.29062,216.25000 238.75000,216.25000 C 229.20939,216.25000 221.47520,224.64466 221.47520,235.00000 C 221.47520,245.35534 229.20939,253.75000 238.75000,253.75000 C 248.29062,253.75000 256.02481,245.35534 256.02481,235.00000 L 256.02481,235.00000 z "
     style="fill:#000000;fill-opacity:1;fill-rule:evenodd;stroke:#000000;stroke-width:1pt;stroke-linecap:butt;stroke-linejoin:miter;stroke-opacity:1"
     id="path1659" />
  <path
     d="M 112.66666,98.261892 L 300.81657,98.261892 L 338.31657,281.21250 L 38.316589,281.21250 C 38.316589,281.21250 94.566585,187.46250 150.81657,187.46250 C 207.06657,187.46250 317.06657,187.46250 317.06657,187.46250"
     style="fill:none;fill-opacity:0.75000000;fill-rule:evenodd;stroke:#000000;stroke-width:12.500000;stroke-linecap:round;stroke-linejoin:round;stroke-miterlimit:4.0000000;stroke-opacity:1.0000000"
     id="path1842" />
</svg>
