<?xml version="1.0" encoding="UTF-8" standalone="no"?>
<!-- Generator: Adobe Illustrator 22.1.0, SVG Export Plug-In . SVG Version: 6.00 Build 0)  -->

<svg
   version="1.1"
   id="レイヤー_1"
   x="0px"
   y="0px"
   viewBox="0 0 374.99999 374.99999"
   xml:space="preserve"
   sodipodi:docname="iron_low_2.svg"
   width="375"
   height="375"
   inkscape:version="1.3.2 (091e20ef0f, 2023-11-25, custom)"
   xmlns:inkscape="http://www.inkscape.org/namespaces/inkscape"
   xmlns:sodipodi="http://sodipodi.sourceforge.net/DTD/sodipodi-0.dtd"
   xmlns="http://www.w3.org/2000/svg"
   xmlns:svg="http://www.w3.org/2000/svg"><defs
   id="defs2" /><sodipodi:namedview
   id="namedview2"
   pagecolor="#ffffff"
   bordercolor="#000000"
   borderopacity="0.25"
   inkscape:showpageshadow="2"
   inkscape:pageopacity="0.0"
   inkscape:pagecheckerboard="0"
   inkscape:deskcolor="#d1d1d1"
   inkscape:zoom="1.669038"
   inkscape:cx="208.80292"
   inkscape:cy="175.25065"
   inkscape:window-width="1920"
   inkscape:window-height="1012"
   inkscape:window-x="0"
   inkscape:window-y="32"
   inkscape:window-maximized="1"
   inkscape:current-layer="g2" />
<style
   type="text/css"
   id="style1">
	.st0{fill:none;stroke:#000000;stroke-width:1.5475;}
</style>
<g
   id="g2">
	<path
   d="m 187.78782,217.87735 c 4.51878,0 6.77816,-0.4108 13.76174,-1.4378 -0.4108,4.51878 -0.2054,9.24296 0.2054,13.76174 h -13.96714 z m 27.93428,-15.19954 c -10.06456,7.18896 -27.11268,7.59976 -29.16668,7.59976 -2.46479,0 -4.10798,0 -6.36738,-0.8216 v 47.44721 c -3.08098,0.61619 -4.31338,0.82159 -5.75117,1.02699 l 2.25939,8.42137 c 0.2054,0.41079 0.4108,1.23239 1.027,1.23239 1.027,0 1.4378,-1.84858 1.64319,-2.67018 6.16197,-1.4378 16.84273,-4.92958 24.2371,-7.80518 l 0.61619,-6.57276 c -4.10798,1.23239 -9.03756,2.87558 -17.04812,4.92958 v -18.48592 h 14.99414 c 2.67018,28.13968 17.45892,41.49062 21.3615,41.49062 3.2864,0 8.42138,-8.42136 9.24296,-10.68076 l -4.72418,-7.59976 c -0.20539,0.6162 -3.49178,7.39436 -5.34037,7.39436 -2.46479,0 -10.06455,-9.85916 -12.94015,-30.60446 5.54578,0 16.84274,0.41079 19.30752,0.41079 v -8.21597 c -2.67018,0.4108 -13.55634,0.8216 -19.92372,0.8216 -0.4108,-5.13498 -0.2054,-10.68076 0,-15.81574 5.34038,-1.64318 6.57278,-2.05398 9.44836,-3.28638 2.8756,0.6162 4.10799,0.2054 4.10799,-0.6162 0,-0.8216 -0.82159,-1.43779 -1.23239,-1.84859 z m -44.98242,0.6162 c -5.95657,20.7453 -15.19953,29.98826 -20.5399,32.65846 l 6.77816,5.54578 c 1.8486,-1.4378 3.69719,-2.8756 6.77818,-7.39438 h 0.2054 v 27.52349 c 0,4.72418 -1.027,14.37794 -1.4378,17.25353 h 8.83216 c -0.2054,-2.67019 -0.2054,-11.70776 -0.2054,-16.84274 v -20.9507 c 0,-6.57278 0,-11.91316 0,-14.58334 1.2324,-0.8216 1.6432,-1.4378 1.6432,-1.8486 0,-0.4108 -0.4108,-0.8216 -0.6162,-1.027 l -1.027,-0.82159 c 2.4648,-3.49179 4.92958,-9.44836 6.16198,-12.52935 0.8216,0 2.87558,-0.2054 2.87558,-1.84859 0,-0.61619 -0.61619,-0.82159 -1.02698,-1.02699 z m 15.81574,65.11152 c -3.28638,0 -9.85916,-0.4108 -11.91315,-0.6162 v 7.80517 c 2.67019,-0.20539 8.62677,-0.82159 11.91315,-0.82159 h 11.70776 c 4.10798,0 9.44836,0.4108 12.32394,0.82159 v -7.80517 c -2.67018,0.4108 -8.42136,0.6162 -12.32394,0.6162 z"
   id="path1"
   style="stroke-width:2.054" />
	<path
   class="st0"
   d="m 129.45446,80.465315 164.93551,52.582175 38.61504,161.44374 H 41.749028 c 0,-35.12326 42.106824,-115.84512 115.845112,-115.84512 73.7383,0 143.7794,-10.47536 143.7794,-10.47536"
   id="path2"
   style="stroke-width:12.5;stroke-dasharray:none;stroke-linecap:round" />
</g>
</svg>
