<?xml version="1.0" encoding="UTF-8"?>
<!-- Generator: Adobe Illustrator 22.1.0, SVG Export Plug-In . SVG Version: 6.00 Build 0)  -->
<svg version="1.1" id="レイヤー_1" xmlns="http://www.w3.org/2000/svg" xmlns:xlink="http://www.w3.org/1999/xlink" x="0px" y="0px" viewBox="0 0 170.1 170.1" style="enable-background:new 0 0 170.1 170.1;" xml:space="preserve">
<style type="text/css">
	.st0{fill:none;stroke:#000000;stroke-width:1.5475;}
</style>
<g>
	<path d="M85.3,99.9c2.2,0,3.3-0.2,6.7-0.7c-0.2,2.2-0.1,4.5,0.1,6.7h-6.8V99.9z M98.9,92.5c-4.9,3.5-13.2,3.7-14.2,3.7   c-1.2,0-2,0-3.1-0.4v23.1c-1.5,0.3-2.1,0.4-2.8,0.5l1.1,4.1c0.1,0.2,0.2,0.6,0.5,0.6c0.5,0,0.7-0.9,0.8-1.3c3-0.7,8.2-2.4,11.8-3.8   l0.3-3.2c-2,0.6-4.4,1.4-8.3,2.4v-9h7.3c1.3,13.7,8.5,20.2,10.4,20.2c1.6,0,4.1-4.1,4.5-5.2l-2.3-3.7c-0.1,0.3-1.7,3.6-2.6,3.6   c-1.2,0-4.9-4.8-6.3-14.9c2.7,0,8.2,0.2,9.4,0.2v-4c-1.3,0.2-6.6,0.4-9.7,0.4c-0.2-2.5-0.1-5.2,0-7.7c2.6-0.8,3.2-1,4.6-1.6   c1.4,0.3,2,0.1,2-0.3c0-0.4-0.4-0.7-0.6-0.9L98.9,92.5z M77,92.8c-2.9,10.1-7.4,14.6-10,15.9l3.3,2.7c0.9-0.7,1.8-1.4,3.3-3.6h0.1   v13.4c0,2.3-0.5,7-0.7,8.4h4.3c-0.1-1.3-0.1-5.7-0.1-8.2v-10.2c0-3.2,0-5.8,0-7.1c0.6-0.4,0.8-0.7,0.8-0.9c0-0.2-0.2-0.4-0.3-0.5   l-0.5-0.4c1.2-1.7,2.4-4.6,3-6.1c0.4,0,1.4-0.1,1.4-0.9c0-0.3-0.3-0.4-0.5-0.5L77,92.8z M84.7,124.5c-1.6,0-4.8-0.2-5.8-0.3v3.8   c1.3-0.1,4.2-0.4,5.8-0.4h5.7c2,0,4.6,0.2,6,0.4v-3.8c-1.3,0.2-4.1,0.3-6,0.3H84.7z"/>
	<path class="st0" d="M56.9,33l80.3,25.6l18.8,78.6H14.2c0-17.1,20.5-56.4,56.4-56.4c35.9,0,70-5.1,70-5.1"/>
</g>
</svg>