<?xml version="1.0" encoding="UTF-8"?>
<!-- Generator: Adobe Illustrator 22.1.0, SVG Export Plug-In . SVG Version: 6.00 Build 0)  -->
<svg version="1.1" id="レイヤー_1" xmlns="http://www.w3.org/2000/svg" xmlns:xlink="http://www.w3.org/1999/xlink" x="0px" y="0px" viewBox="0 0 170.1 170.1" style="enable-background:new 0 0 170.1 170.1;" xml:space="preserve">
<style type="text/css">
	.st0{fill:none;stroke:#000000;stroke-width:1.5475;}
</style>
<g>
	<path d="M92.2,120.9v3.2h-9.8v-3.2H92.2z M84.6,118.1c-1.6,0-4.7-0.1-5.7-0.1c0.1,0.7,0.1,2,0.1,3v2.8c0,1.2,0,2.6-0.2,3.6   c1.2,0,3.4-0.2,5-0.2h5.9c2.2,0,5.1,0,6.6,0.1c-0.4-1.1-0.4-2.5-0.4-3.7v-2.6c0-1,0.1-2,0.2-3c-0.7,0-4.1,0.1-5.9,0.1H84.6z    M84.9,101.7c-2.2,0-7.5-0.2-8-0.2c0.1,1.1,0.2,2.1,0.2,3.2v3.3c0,0.9-0.2,2.3-0.2,3.1c1.5,0,5-0.1,7.5-0.1h5.9   c2.4,0,7.2,0.1,8.1,0.1c-0.3-1.1-0.3-2.2-0.3-3.3v-3c0-1.1,0-2.2,0.2-3.3c-1.2,0.2-4.9,0.2-7.3,0.2H84.9z M94.4,104.8v3.2H80.7   v-3.2H94.4z M82.5,113c-2.6,0-10-0.1-11.7-0.3c0,0.7,0,4.4,0,6.4v5c0,2,0,4.6-0.2,5.9h4.2c-0.1-1.5-0.3-5.4-0.3-8.6V116h25.9v9.1   c0,0.9-0.2,1.1-0.8,1.1c-0.6,0-2.5-0.3-3.2-0.4l1.6,4c0.7,0.1,2.8,0,3.8,0c1.5,0,2.5-0.8,2.5-2.6c0-1.5-0.1-3.9-0.1-5.3v-4   c0-1.7,0-3.4,0-5.2c-1.5,0.1-8,0.3-11.9,0.3H82.5z M85.7,92.6c0,0.8,0.1,2.9,0.1,3.9h-4c-3.1,0-9.8-0.2-12-0.4v3.9   c2.3-0.2,8.9-0.3,11.9-0.3h13.9c3.4,0,7.7,0,10.2,0.3v-3.9c-2.4,0.4-6.8,0.4-10.2,0.4h-5.9c0-0.6,0-1.4,0-1.9   c0.7-0.2,1.1-0.5,1.1-1.1c0-0.5-0.6-0.7-0.9-0.7L85.7,92.6z"/>
	<path class="st0" d="M56.9,33l80.3,25.6l18.8,78.6H14.2c0-17.1,20.5-56.4,56.4-56.4c35.9,0,70-5.1,70-5.1"/>
</g>
</svg>