<?xml version="1.0" encoding="UTF-8"?>
<!-- Generator: Adobe Illustrator 22.1.0, SVG Export Plug-In . SVG Version: 6.00 Build 0)  -->
<svg version="1.1" id="レイヤー_1" xmlns="http://www.w3.org/2000/svg" xmlns:xlink="http://www.w3.org/1999/xlink" x="0px" y="0px" viewBox="0 0 170.1 170.1" style="enable-background:new 0 0 170.1 170.1;" xml:space="preserve">
<style type="text/css">
	.st0{fill:none;stroke:#000000;stroke-width:1.5475;}
</style>
<g>
	<path d="M85.7,104.7v8.7h-10v-8.7H85.7z M85.5,92.2c0.1,1.7,0.1,6,0.1,9h-5.3c-2.3,0-6.8,0-8.9-0.2c0.1,1.7,0.1,3.4,0.1,5.2v6.3   c0,2.2,0,4.4-0.2,6.6h4.5c0-0.7-0.1-1.6-0.1-2.1h10c0,4.5-0.3,10.8-0.4,13.4h4.9c-0.2-2.9-0.3-8.9-0.3-13.4h10   c0,0.7-0.1,1.4-0.1,2.1h4.6c-0.2-2.2-0.2-4.4-0.2-6.7v-5.7c0-2,0-3.9,0.1-5.9c-2.3,0.2-7.5,0.4-10.4,0.4h-4.1   c0-1.2,0.1-5.8,0.1-6.6c0.9-0.5,1.4-0.8,1.4-1.3c0-0.5-0.6-0.6-1.1-0.7L85.5,92.2z M99.8,104.7v8.7h-10v-8.7H99.8z"/>
	<path class="st0" d="M56.9,33l80.3,25.6l18.8,78.6H14.2c0-17.1,20.5-56.4,56.4-56.4c35.9,0,70-5.1,70-5.1"/>
</g>
</svg>