<?xml version="1.0" encoding="UTF-8"?>
<!-- Generator: Adobe Illustrator 22.1.0, SVG Export Plug-In . SVG Version: 6.00 Build 0)  -->
<svg version="1.1" id="レイヤー_1" xmlns="http://www.w3.org/2000/svg" xmlns:xlink="http://www.w3.org/1999/xlink" x="0px" y="0px" viewBox="0 0 170.1 170.1" style="enable-background:new 0 0 170.1 170.1;" xml:space="preserve">
<style type="text/css">
	.st0{fill:none;stroke:#000000;stroke-width:1.5475;}
</style>
<g>
	<path d="M24.4,79.1c1.6,0.1,3.2,0.2,4.8,0.2h4.3c1.5,0,3,0,4.5-0.2c0,1.6-0.1,3.2-0.1,4.8v4.6c0,1.7,0.1,3.4,0.1,5.1h-2.1   c0-0.4,0.1-0.8,0.1-1.2h-5.5c-2.2,0-4.3,0.1-6.5,0.2v-2.1c2.2,0.1,4.5,0.2,6.7,0.2H36v-4.1h-5.3c-2,0-4,0.2-6.1,0.3v-2.2   c2,0.1,4.1,0.2,6.1,0.2H36v-4.1h-5.7c-2,0-3.9,0.1-5.9,0.3V79.1z"/>
	<path d="M83.4,94.5c5-3,6.9-6,8.3-12.3c0.2-1,0.4-1.8,0.9-2.5l-1.5-1.4c-0.8,0.4-2.1,0.5-3.9,0.5h-5c-2,0-3.8,0-4.5-0.1   c0.1,0.8,0.1,2.4,0.1,3.9c0,1.3-0.1,2.7-0.1,3.4h2.3c0-1.1-0.1-2.1-0.1-3.1v-2.5h10c-0.7,5.9-3.4,10.2-8.4,12.5L83.4,94.5z"/>
	<path d="M131,85.6c2.5-2,4.5-4.9,5.5-7.8l2.2,1c0.2,0.1,0.3,0.2,0.3,0.3c0,0.2-0.2,0.3-0.7,0.4c-0.2,0.4-0.5,0.8-0.7,1.1h3.2   c1.4,0,2.8-0.1,3.3-0.4l1.5,1.6c-0.2,0.2-0.4,0.4-0.6,0.6c-1.7,5.9-5.4,10.6-9.7,12.7l-1.8-1.5c4.8-2.1,8-5.8,9.4-11.5h-6.2   c-0.9,1.5-2.8,3.9-4,4.8L131,85.6z"/>
	<path class="st0" d="M14.2,106V64.1c0,0,29.7-5.4,48.6,8.1c0,0-6.7,24.3-21.6,29.7C26.3,107.3,14.2,106,14.2,106z"/>
	<path class="st0" d="M62.8,72.2c0,0-3.8,13.7-12,22.8c0,0,6.6,13.7,28.2,13.7c21.6,0,27-14.8,27-14.8s10.8-21.6,14.8-24.3   c0,0-6.7-8.1-29.7-8.1C68.2,61.4,62.8,72.2,62.8,72.2z"/>
	<path class="st0" d="M106,93.8c0,0,10.8-21.6,14.8-24.3c0,0,20.2-5.4,35.1-5.4v40.5C155.9,104.6,124.9,111.4,106,93.8z"/>
</g>
</svg>