<?xml version="1.0" encoding="UTF-8"?>
<!-- Generator: Adobe Illustrator 22.1.0, SVG Export Plug-In . SVG Version: 6.00 Build 0)  -->
<svg version="1.1" id="レイヤー_1" xmlns="http://www.w3.org/2000/svg" xmlns:xlink="http://www.w3.org/1999/xlink" x="0px" y="0px" viewBox="0 0 170.1 170.1" style="enable-background:new 0 0 170.1 170.1;" xml:space="preserve">
<style type="text/css">
	.st0{fill:none;stroke:#000000;stroke-width:1.5475;}
</style>
<g>
	<line class="st0" x1="35.2" y1="31.1" x2="141.6" y2="139"/>
	<line class="st0" x1="135.9" y1="31.1" x2="29.4" y2="139"/>
	<path class="st0" d="M14.2,109.9V68.1c0,0,29.7-5.4,48.6,8.1c0,0-6.7,24.3-21.6,29.7C26.3,111.3,14.2,109.9,14.2,109.9z"/>
	<path class="st0" d="M62.8,76.2c0,0-3.8,13.7-12,22.8c0,0,6.6,13.7,28.2,13.7c21.6,0,27-14.8,27-14.8s10.8-21.6,14.8-24.3   c0,0-6.7-8.1-29.7-8.1C68.2,65.4,62.8,76.2,62.8,76.2z"/>
	<path class="st0" d="M106,97.8c0,0,10.8-21.6,14.8-24.3c0,0,20.2-5.4,35.1-5.4v40.5C155.9,108.6,124.9,115.3,106,97.8z"/>
</g>
</svg>