<?xml version="1.0" encoding="UTF-8" standalone="no"?>
<!-- Generator: Adobe Illustrator 22.1.0, SVG Export Plug-In . SVG Version: 6.00 Build 0)  -->

<svg
   version="1.1"
   id="レイヤー_1"
   x="0px"
   y="0px"
   viewBox="0 0 374.99999 374.99999"
   xml:space="preserve"
   sodipodi:docname="wring_gently.svg"
   inkscape:version="1.3.2 (091e20ef0f, 2023-11-25, custom)"
   width="375"
   height="375"
   xmlns:inkscape="http://www.inkscape.org/namespaces/inkscape"
   xmlns:sodipodi="http://sodipodi.sourceforge.net/DTD/sodipodi-0.dtd"
   xmlns="http://www.w3.org/2000/svg"
   xmlns:svg="http://www.w3.org/2000/svg"><defs
   id="defs6" /><sodipodi:namedview
   id="namedview6"
   pagecolor="#ffffff"
   bordercolor="#000000"
   borderopacity="0.25"
   inkscape:showpageshadow="2"
   inkscape:pageopacity="0.0"
   inkscape:pagecheckerboard="0"
   inkscape:deskcolor="#d1d1d1"
   inkscape:zoom="1.669038"
   inkscape:cx="238.16114"
   inkscape:cy="185.43616"
   inkscape:window-width="1920"
   inkscape:window-height="1012"
   inkscape:window-x="0"
   inkscape:window-y="32"
   inkscape:window-maximized="1"
   inkscape:current-layer="g6" />
<style
   type="text/css"
   id="style1">
	.st0{fill:none;stroke:#000000;stroke-width:1.5475;}
</style>
<g
   id="g6"
   transform="translate(8.184908,1.4428453)">
	
	
	
	<path
   class="st0"
   d="m 16.559764,234.06905 v -96.25192 c 0,0 68.226299,-12.40478 111.643036,18.60717 0,0 -15.39111,55.82152 -49.619128,68.2263 -34.228009,12.40478 -62.023908,9.41845 -62.023908,9.41845 z"
   id="path4"
   style="stroke-width:12.5;stroke-dasharray:none" />
	<path
   class="st0"
   d="m 128.2028,156.4243 c 0,0 -8.72929,31.47139 -27.56619,52.37575 0,0 15.16141,31.47138 64.78053,31.47138 49.61913,0 62.02391,-33.99828 62.02391,-33.99828 0,0 24.80956,-49.61914 33.99829,-55.82153 0,0 -15.39111,-18.60717 -68.2263,-18.60717 -52.60546,-0.22972 -65.01024,24.57985 -65.01024,24.57985 z"
   id="path5"
   style="stroke-width:12.5;stroke-dasharray:none" />
	<path
   class="st0"
   d="m 227.44105,206.04343 c 0,0 24.80956,-49.61913 33.99829,-55.82153 0,0 46.40307,-12.40477 80.63108,-12.40477 v 93.03586 c 0,0 -71.21264,15.62084 -114.62937,-24.80956 z"
   id="path6"
   style="stroke-width:12.5;stroke-dasharray:none" />
</g>
<path
   d="m 181.61885,206.7162 c 11.86185,-7.11711 16.36936,-14.23422 19.69068,-29.18016 0.47447,-2.37237 0.94894,-4.27026 2.13513,-5.93092 l -3.55856,-3.32132 c -1.89789,0.94895 -4.98197,1.18619 -9.25224,1.18619 h -11.86185 c -4.74474,0 -9.01501,0 -10.67567,-0.23724 0.23724,1.89789 0.23724,5.69369 0.23724,9.25224 0,3.08408 -0.23724,6.4054 -0.23724,8.06606 h 5.45645 c 0,-2.60961 -0.23723,-4.98198 -0.23723,-7.35435 v -5.93092 h 23.7237 c -1.66066,13.99698 -8.06606,24.19818 -19.92791,29.65463 z"
   id="path2"
   style="stroke-width:2.37237" /><path
   d="m 287.18925,185.43561 c 6.07174,-4.85739 10.92913,-11.90061 13.35783,-18.94383 l 5.34313,2.42869 c 0.48574,0.24287 0.72861,0.48574 0.72861,0.72861 0,0.48574 -0.48574,0.72861 -1.70009,0.97148 -0.48574,0.97148 -1.21435,1.94296 -1.70009,2.67157 h 7.77183 c 3.40018,0 6.80035,-0.24287 8.0147,-0.97148 l 3.64304,3.88591 c -0.48574,0.48574 -0.97148,0.97148 -1.45722,1.45722 -4.12878,14.32931 -13.11495,25.74418 -23.55835,30.84444 l -4.37165,-3.64304 c 11.65774,-5.10026 19.42957,-14.08644 22.82974,-27.93001 h -15.05791 c -2.18583,3.64305 -6.80035,9.47192 -9.71479,11.65774 z"
   id="path3"
   style="stroke-width:2.4287" /><path
   d="m 52.537613,170.70602 c 3.706257,0.23164 7.412514,0.46329 11.118771,0.46329 h 9.960566 c 3.474616,0 6.949231,0 10.423847,-0.46329 0,3.70626 -0.231641,7.41252 -0.231641,11.11877 v 10.65549 c 0,3.9379 0.231641,7.8758 0.231641,11.8137 h -4.864462 c 0,-0.92657 0.231641,-1.85313 0.231641,-2.7797 H 66.667718 c -5.096104,0 -9.960566,0.23165 -15.056669,0.46329 v -4.86447 c 5.096103,0.23165 10.423847,0.46329 15.519951,0.46329 H 79.407976 V 188.0791 H 67.131 c -4.632821,0 -9.265643,0.46328 -14.130105,0.69493 v -5.09611 c 4.632821,0.23164 9.497284,0.46328 14.130105,0.46328 h 12.276976 v -9.49728 h -13.20354 c -4.632822,0 -9.034002,0.23164 -13.666823,0.69492 z"
   id="path1"
   style="stroke-width:2.31641" /></svg>
