<?xml version="1.0" encoding="UTF-8" standalone="no"?>
<!-- Generator: Adobe Illustrator 22.1.0, SVG Export Plug-In . SVG Version: 6.00 Build 0)  -->

<svg
   version="1.1"
   id="レイヤー_1"
   x="0px"
   y="0px"
   viewBox="0 0 170.1 170.1"
   style="enable-background:new 0 0 170.1 170.1;"
   xml:space="preserve"
   sodipodi:docname="wring.svg"
   inkscape:version="1.3.2 (091e20ef0f, 2023-11-25, custom)"
   xmlns:inkscape="http://www.inkscape.org/namespaces/inkscape"
   xmlns:sodipodi="http://sodipodi.sourceforge.net/DTD/sodipodi-0.dtd"
   xmlns="http://www.w3.org/2000/svg"
   xmlns:svg="http://www.w3.org/2000/svg"><defs
   id="defs6" /><sodipodi:namedview
   id="namedview6"
   pagecolor="#ffffff"
   bordercolor="#000000"
   borderopacity="0.25"
   inkscape:showpageshadow="2"
   inkscape:pageopacity="0.0"
   inkscape:pagecheckerboard="0"
   inkscape:deskcolor="#d1d1d1"
   inkscape:zoom="4.7207523"
   inkscape:cx="85.050003"
   inkscape:cy="85.050003"
   inkscape:window-width="1920"
   inkscape:window-height="1012"
   inkscape:window-x="0"
   inkscape:window-y="32"
   inkscape:window-maximized="1"
   inkscape:current-layer="g6" />
<style
   type="text/css"
   id="style1">
	.st0{fill:none;stroke:#000000;stroke-width:1.5475;}
</style>
<g
   id="g6">
	
	
	
	<path
   class="st0"
   d="M14.2,106V64.1c0,0,29.7-5.4,48.6,8.1c0,0-6.7,24.3-21.6,29.7C26.3,107.3,14.2,106,14.2,106z"
   id="path4" />
	<path
   class="st0"
   d="M62.8,72.2c0,0-3.8,13.7-12,22.8c0,0,6.6,13.7,28.2,13.7c21.6,0,27-14.8,27-14.8s10.8-21.6,14.8-24.3   c0,0-6.7-8.1-29.7-8.1C68.2,61.4,62.8,72.2,62.8,72.2z"
   id="path5" />
	<path
   class="st0"
   d="M106,93.8c0,0,10.8-21.6,14.8-24.3c0,0,20.2-5.4,35.1-5.4v40.5C155.9,104.6,124.9,111.4,106,93.8z"
   id="path6" />
</g>
</svg>
