<?xml version="1.0" encoding="UTF-8" standalone="no"?>
<!-- Created with Inkscape (http://www.inkscape.org/) -->

<svg
   version="1.0"
   x="0.0000000"
   y="0.0000000"
   width="375.00000"
   height="375.00000"
   id="svg1568"
   sodipodi:docname="pro_hcs_2.svg"
   inkscape:version="1.3.2 (091e20ef0f, 2023-11-25, custom)"
   xmlns:inkscape="http://www.inkscape.org/namespaces/inkscape"
   xmlns:sodipodi="http://sodipodi.sourceforge.net/DTD/sodipodi-0.dtd"
   xmlns="http://www.w3.org/2000/svg"
   xmlns:svg="http://www.w3.org/2000/svg">
  <sodipodi:namedview
     id="namedview1"
     pagecolor="#ffffff"
     bordercolor="#000000"
     borderopacity="0.25"
     inkscape:showpageshadow="2"
     inkscape:pageopacity="0.0"
     inkscape:pagecheckerboard="0"
     inkscape:deskcolor="#d1d1d1"
     inkscape:zoom="2.1413333"
     inkscape:cx="192.16999"
     inkscape:cy="195.43898"
     inkscape:window-width="1920"
     inkscape:window-height="1012"
     inkscape:window-x="0"
     inkscape:window-y="32"
     inkscape:window-maximized="1"
     inkscape:current-layer="g4032" />
  <defs
     id="defs1570">
    <linearGradient
       id="linearGradient2783">
      <stop
         style="stop-color:#000000;stop-opacity:1.0000000"
         offset="0.0000000"
         id="stop2784" />
      <stop
         style="stop-color:#ffffff;stop-opacity:1.0000000"
         offset="1.0000000"
         id="stop2785" />
    </linearGradient>
  </defs>
  <g
     id="g4032"
     transform="translate(-0.45050714,-4.170022)">
    <path
       d="M 311.48582,187.50000 C 311.49647,118.79457 255.98301,63.092151 187.50000,63.092151 C 119.01699,63.092151 63.503530,118.79457 63.514183,187.50000 C 63.503530,256.20543 119.01699,311.90785 187.50000,311.90785 C 255.98301,311.90785 311.49647,256.20543 311.48582,187.50000 L 311.48582,187.50000 z "
       style="fill:none;fill-opacity:0.75;fill-rule:evenodd;stroke:#000000;stroke-width:13.58843;stroke-linecap:butt;stroke-linejoin:miter;stroke-miterlimit:4;stroke-opacity:1"
       id="path1580"
       transform="matrix(0.905299,0,0,0.934737,18.206947,25.136302)" />
    <path
       d="m 144.51883,137.47611 c 1.45581,0.97055 3.23513,2.58811 4.36743,4.36744 l 2.42635,-2.10284 c -1.45581,-1.77932 -3.23513,-3.23514 -4.52919,-4.04392 z m 0.32351,18.76379 c -2.74986,-3.07338 -8.24959,-7.27906 -13.58757,-9.54365 l -1.94107,3.55865 h -0.16176 v -3.39689 c 0,-2.91163 0.16176,-5.66149 0.48527,-8.73487 1.29405,-0.48527 1.61756,-0.97054 1.61756,-1.45581 0,-0.32352 -0.32351,-0.64703 -0.80878,-0.64703 l -5.82324,-0.64702 c 0.16176,4.04391 0.32351,7.76432 0.32351,11.48473 v 9.38189 c 0,4.52919 -0.48527,9.22013 -0.97054,13.42581 h 5.49973 c -0.16175,-4.20568 -0.32351,-9.22014 -0.32351,-13.74933 v -5.49973 c 5.17621,1.94108 9.54364,5.49973 12.77878,9.22014 z m -5.66148,-15.69041 c 1.4558,0.80878 3.39688,2.58811 4.36743,4.20568 l 2.42635,-2.2646 c -0.97054,-1.29405 -2.91162,-3.23513 -4.36743,-4.04391 z"
       id="path1"
       style="stroke-width:1.61757" />
    <path
       d="m 177.35545,139.74071 c 2.26459,-0.16176 4.69094,-0.32352 6.95554,-0.32352 h 6.95554 c 2.26459,0 4.69094,0.16176 7.11729,0.32352 v -4.20568 c -2.42635,0.16176 -4.69095,0.32351 -7.11729,0.32351 h -6.95554 c -2.2646,0 -4.69095,-0.16175 -6.95554,-0.32351 z m 3.55864,31.05729 c 9.05838,-3.88216 16.17568,-9.05838 20.21959,-18.76378 0.64703,-1.45581 1.45581,-3.07338 2.74987,-4.52919 l -3.39689,-3.39689 c -1.45581,0.97054 -3.88217,1.1323 -8.2496,1.1323 h -10.19067 c -3.39689,0 -6.63202,-0.32351 -10.02892,-0.48527 v 4.69094 c 4.04392,-0.32351 8.08784,-0.48527 12.13176,-0.48527 h 13.58756 c -1.77932,6.47027 -10.02892,16.8227 -20.38134,17.955 z"
       id="path2"
       style="stroke-width:1.61757" />
    <path
       d="m 231.05868,156.72516 c 4.36743,-1.61756 7.92608,-3.7204 11.64648,-6.47026 v 8.24959 c 0,4.04392 -0.16175,8.08784 -0.32351,12.13175 h 4.52919 c -0.16176,-3.88216 -0.48527,-7.92607 -0.48527,-11.80823 v -11.48473 c 2.74987,-2.10284 6.14676,-5.49973 8.57311,-8.08784 1.61756,0.16175 2.10283,-0.32352 2.10283,-0.80878 0,-0.32352 -0.16175,-0.64704 -0.48527,-0.80879 l -3.88216,-2.91162 c -5.985,8.41135 -13.91108,14.88162 -25.88107,18.76378 z"
       id="path3"
       style="stroke-width:1.61757" />
    <path
       class="st0"
       d="m 75.811473,183.41502 c 28.145667,0 28.145667,17.14622 56.129587,17.14622 28.7927,-0.16176 28.7927,-17.14622 57.58539,-17.14622 27.82217,0 27.82217,17.14622 55.64432,17.14622 26.85162,0 26.85162,-17.14622 53.86499,-17.14622"
       id="path4"
       style="fill:none;stroke:#000000;stroke-width:12.5;stroke-dasharray:none" />
    <path
       d="m 133.53124,250.59084 c 2.21796,-2.85166 5.86175,-8.55499 6.81231,-10.13925 0.79213,-0.95056 1.74268,-1.58426 2.85166,-2.21796 l -3.32694,-3.32695 c -1.74268,1.10898 -3.80222,1.26741 -8.39657,1.58426 l -7.44601,0.47528 c 0,-2.69324 0.31685,-6.17861 0.6337,-8.23814 0.95056,-0.47528 1.26741,-0.79213 1.26741,-1.26741 0,-0.31685 -0.15843,-0.6337 -0.63371,-0.6337 l -5.5449,-0.63371 c 0.31685,3.32695 0.31685,4.43593 0.31685,10.93139 -4.43592,0.15842 -8.07972,0.31685 -10.61453,0.31685 l 0.79213,4.59435 c 3.16852,-0.47528 6.49546,-0.95056 9.8224,-1.26741 v 4.11907 c 0,2.21796 0,4.43592 0,6.49546 0,5.06963 1.74269,6.81231 9.03027,6.81231 3.16852,0 9.82241,-0.47528 11.24824,-0.6337 v -4.2775 c -2.85167,0.6337 -6.17861,1.10898 -11.08981,1.10898 -4.2775,0 -5.38648,-1.26741 -5.38648,-4.75277 0,-1.58426 0.15843,-3.01009 0.15843,-4.9112 v -4.43593 l 12.35721,-1.10898 c -2.37639,4.2775 -4.75277,6.81231 -6.65388,8.71342 z"
       id="path4-6"
       style="stroke-width:1.58426" />
    <path
       d="m 149.8491,234.43141 c 3.01009,-0.15843 5.86175,-0.47528 8.87184,-1.10898 l 2.37639,-0.47528 c -0.79213,-2.69324 -1.74268,-5.86176 -2.85166,-8.07972 l 5.06962,-0.47528 c 0.63371,0 1.10898,0 1.10898,0.47528 0,0.47528 -0.31685,0.95056 -0.95055,1.42583 0.31685,1.90111 0.79213,3.96065 1.42583,5.86176 l 2.21796,-0.47528 c 3.32695,-0.6337 5.54491,-1.42583 7.60444,-2.21796 l 0.95056,4.11907 c -2.53481,0.31685 -5.06963,0.6337 -7.60444,1.10898 l -2.37639,0.47528 1.74269,6.65388 4.11907,-0.79212 c 3.01009,-0.47528 6.02018,-1.26741 8.87184,-2.21797 l 1.10898,4.2775 c -3.48536,0.47528 -6.49545,0.79213 -8.87184,1.26741 l -4.2775,0.79213 0.31685,1.10898 c 1.26741,5.06962 2.69324,9.1887 3.96065,12.51564 l -5.22805,1.10898 c -0.31686,-3.32694 -1.42584,-8.555 -2.53482,-13.14934 l -0.31685,-0.95056 -4.9112,0.95056 c -3.32694,0.6337 -7.12916,1.42583 -9.8224,2.37638 l -0.95056,-4.59435 c 3.32695,-0.31685 6.33704,-0.47527 10.61453,-1.2674 l 4.2775,-0.79213 -1.74268,-6.65389 -2.53482,0.47528 c -2.53481,0.47528 -6.1786,1.42583 -8.39657,2.37639 z"
       id="path5"
       style="stroke-width:1.58426" />
    <path
       d="m 223.20026,255.02676 c -5.54491,-0.47527 -8.23814,-0.47527 -12.51564,-0.47527 h -11.56509 c -3.80222,0 -8.87184,0.15842 -12.51564,0.47527 v -4.27749 c 4.43592,0.31685 8.39657,0.47527 12.35722,0.47527 h 9.03027 c 0.95055,-5.70333 1.90111,-11.40666 2.53481,-17.10999 h -7.12916 c -3.32694,0 -6.97074,0.15843 -9.50555,0.31686 v -4.11908 c 2.69324,0.15843 5.5449,0.47528 7.92129,0.47528 h 6.81231 c 2.37639,0 4.9112,-0.15842 7.28759,-0.31685 -0.79213,4.75278 -1.58426,8.71342 -2.05954,11.56509 l -1.42583,9.18869 c 4.59435,-0.15842 6.81231,-0.15842 10.77296,-0.47527 z"
       id="path6"
       style="stroke-width:1.58426" />
    <path
       d="m 238.25071,249.48186 c -1.90111,3.16852 -6.49546,6.49546 -9.98082,7.60444 l 3.32694,3.32694 c 4.59435,-2.21796 6.81231,-4.27749 9.1887,-7.44601 0.79213,0 1.58425,-0.15843 1.58425,-0.6337 0,-0.31686 -0.31685,-0.63371 -0.6337,-0.79213 z m 15.52573,-19.16953 c -1.74268,3.80222 -4.11907,6.65389 -6.1786,9.03028 -1.26741,-1.26741 -2.53482,-2.21796 -3.96065,-3.32695 l 4.9112,-7.44601 c 3.01009,-0.31685 8.71342,-1.26741 11.40666,-1.90111 0.47528,0.15843 1.10898,0.31685 1.58426,0.31685 0.31685,0 0.6337,-0.31685 0.6337,-0.6337 0,-0.31685 -0.15842,-0.47528 -0.47527,-0.79213 l -2.85167,-2.85167 c -7.76286,2.37639 -14.57518,2.37639 -18.3774,2.37639 -3.32694,0 -6.65388,0 -9.98082,-0.47528 l 2.21796,4.11908 c 2.85166,0.15842 7.92129,0.15842 10.77296,-0.15843 l -3.0101,4.9112 c -1.10898,-0.6337 -2.21796,-1.26741 -3.48536,-1.74268 l -2.05954,3.32694 c 3.64379,1.74268 6.97074,3.96065 9.98083,6.81231 -0.47528,0.47528 -0.95056,0.95056 -1.42583,1.42583 -3.32695,0.15843 -10.93139,0.31685 -14.57518,0.15843 l 0.47528,4.2775 c 0,0.47527 0.15842,0.95055 0.47527,0.95055 0.47528,0 0.79213,-0.47528 1.10898,-1.26741 3.16852,-0.15842 10.45611,-0.47527 14.25833,-0.6337 v 6.81231 c 0,2.69324 -0.15843,5.38648 -0.6337,8.07972 h 5.06962 c -0.31685,-2.69324 -0.47527,-5.38648 -0.47527,-8.07972 v -6.97073 c 4.11907,-0.15843 8.23814,-0.31686 12.35721,-0.47528 0.47528,0.95055 0.79213,2.05953 1.10898,3.16851 l 3.80222,-2.53481 c -1.58426,-3.32694 -3.80222,-6.49546 -6.65388,-9.03027 l -3.16852,2.21796 c 0.95055,0.95056 1.90111,1.90111 2.69324,3.01009 -1.26741,0.15843 -8.555,0.31685 -10.77296,0.31685 2.85167,-2.85166 5.54491,-5.86175 7.76287,-9.1887 0.79213,0 1.58426,0 1.58426,-0.6337 0,-0.31685 -0.15843,-0.47528 -0.47528,-0.6337 z m -1.10898,21.70434 c 2.53482,3.80222 6.33704,6.97074 10.77296,8.39657 l 3.01009,-3.48537 c -4.43592,-1.2674 -8.23814,-3.80222 -10.77296,-7.60444 z"
       id="path7"
       style="stroke-width:1.58426" />
  </g>
</svg>
