<?xml version="1.0" encoding="UTF-8"?>
<!-- Generator: Adobe Illustrator 22.1.0, SVG Export Plug-In . SVG Version: 6.00 Build 0)  -->
<svg version="1.1" id="レイヤー_1" xmlns="http://www.w3.org/2000/svg" xmlns:xlink="http://www.w3.org/1999/xlink" x="0px" y="0px" viewBox="0 0 170.1 170.1" style="enable-background:new 0 0 170.1 170.1;" xml:space="preserve">
<style type="text/css">
	.st0{fill:none;stroke:#000000;stroke-width:1.5475;}
</style>
<g>
	<path d="M57.9,47c0.9,0.6,2,1.6,2.7,2.7l1.5-1.3c-0.9-1.1-2-2-2.8-2.5L57.9,47z M58.1,58.6c-1.7-1.9-5.1-4.5-8.4-5.9l-1.2,2.2h-0.1   v-2.1c0-1.8,0.1-3.5,0.3-5.4c0.8-0.3,1-0.6,1-0.9c0-0.2-0.2-0.4-0.5-0.4l-3.6-0.4c0.1,2.5,0.2,4.8,0.2,7.1v5.8   c0,2.8-0.3,5.7-0.6,8.3h3.4c-0.1-2.6-0.2-5.7-0.2-8.5V55c3.2,1.2,5.9,3.4,7.9,5.7L58.1,58.6z M54.6,48.9c0.9,0.5,2.1,1.6,2.7,2.6   l1.5-1.4c-0.6-0.8-1.8-2-2.7-2.5L54.6,48.9z"/>
	<path d="M78.2,48.4c1.4-0.1,2.9-0.2,4.3-0.2h4.3c1.4,0,2.9,0.1,4.4,0.2v-2.6c-1.5,0.1-2.9,0.2-4.4,0.2h-4.3c-1.4,0-2.9-0.1-4.3-0.2   V48.4z M80.4,67.6C86,65.2,90.4,62,92.9,56c0.4-0.9,0.9-1.9,1.7-2.8l-2.1-2.1c-0.9,0.6-2.4,0.7-5.1,0.7h-6.3   c-2.1,0-4.1-0.2-6.2-0.3v2.9c2.5-0.2,5-0.3,7.5-0.3h8.4c-1.1,4-6.2,10.4-12.6,11.1L80.4,67.6z"/>
	<path d="M111.4,58.9c2.7-1,4.9-2.3,7.2-4v5.1c0,2.5-0.1,5-0.2,7.5h2.8c-0.1-2.4-0.3-4.9-0.3-7.3v-7.1c1.7-1.3,3.8-3.4,5.3-5   c1,0.1,1.3-0.2,1.3-0.5c0-0.2-0.1-0.4-0.3-0.5l-2.4-1.8c-3.7,5.2-8.6,9.2-16,11.6L111.4,58.9z"/>
	<path class="st0" d="M15.5,75.4c17.4,0,17.4,10.6,34.7,10.6C68,85.9,68,75.4,85.8,75.4c17.2,0,17.2,10.6,34.4,10.6   c16.6,0,16.6-10.6,33.3-10.6"/>
	<path class="st0" d="M155,85.9c0,38.9-31.5,70.4-70.4,70.4c-38.9,0-70.4-31.5-70.4-70.4c0-38.9,31.5-70.4,70.4-70.4   C123.5,15.5,155,47,155,85.9z"/>
	<line class="st0" x1="14.7" y1="13.7" x2="152.9" y2="151.9"/>
	<line class="st0" x1="155.9" y1="13.7" x2="17.7" y2="151.9"/>
</g>
</svg>