<?xml version="1.0" encoding="UTF-8"?>
<!-- Generator: Adobe Illustrator 22.1.0, SVG Export Plug-In . SVG Version: 6.00 Build 0)  -->
<svg version="1.1" id="レイヤー_1" xmlns="http://www.w3.org/2000/svg" xmlns:xlink="http://www.w3.org/1999/xlink" x="0px" y="0px" viewBox="0 0 170.1 170.1" style="enable-background:new 0 0 170.1 170.1;" xml:space="preserve">
<style type="text/css">
	.st0{fill:none;stroke:#000000;stroke-width:1.5475;}
</style>
<g>
	<path d="M58.2,45.8c0.9,0.6,2,1.6,2.7,2.7l1.5-1.4c-0.9-1.1-2-2-2.9-2.6L58.2,45.8z M58.3,57.5c-1.8-1.9-5.1-4.5-8.5-6l-1.2,2.2   h-0.1v-2.1c0-1.8,0.1-3.5,0.3-5.4c0.9-0.3,1-0.6,1-0.9c0-0.2-0.2-0.4-0.5-0.4l-3.6-0.4c0.1,2.5,0.2,4.8,0.2,7.2v5.8   c0,2.8-0.3,5.7-0.6,8.4h3.4c-0.1-2.6-0.2-5.7-0.2-8.5v-3.5c3.2,1.2,6,3.4,7.9,5.7L58.3,57.5z M54.8,47.8c0.9,0.5,2.1,1.6,2.7,2.6   L59,49c-0.6-0.9-1.8-2-2.7-2.5L54.8,47.8z"/>
	<path d="M78.7,64.2c6.5-0.8,11.6-7.1,12.7-11.2H83c-2.5,0-5.1,0.2-7.6,0.3v-2.9c2.1,0.2,4.1,0.3,6.2,0.3H88c2.8,0,4.2-0.2,5.1-0.7   l2.1,2.1c-0.9,0.9-1.4,1.8-1.8,2.8c-2.5,6-6.9,9.3-12.6,11.6L78.7,64.2z M78.6,44.7c1.4,0.1,2.9,0.2,4.3,0.2h4.3   c1.5,0,2.9-0.1,4.4-0.2v2.6c-1.5-0.1-2.9-0.2-4.4-0.2h-4.3c-1.4,0-2.9,0.1-4.3,0.2V44.7z"/>
	<path d="M109.4,55.8c7.4-2.4,12.4-6.5,16.1-11.7l2.4,1.8c0.2,0.1,0.3,0.3,0.3,0.5c0,0.3-0.3,0.6-1.3,0.5c-1.5,1.7-3.6,3.7-5.3,5.1   v7.1c0,2.4,0.2,4.9,0.3,7.4h-2.8c0-2.5,0.2-5,0.2-7.6v-5.1c-2.3,1.7-4.6,3-7.3,4L109.4,55.8z"/>
	<path class="st0" d="M15.5,74.4C33,74.4,33,85,50.4,85c17.9,0,17.9-10.6,35.8-10.6c17.3,0,17.3,10.6,34.6,10.6   c16.7,0,16.7-10.6,33.5-10.6"/>
	<path class="st0" d="M155.9,85c0,39.1-31.7,70.9-70.9,70.9c-39.1,0-70.9-31.7-70.9-70.9c0-39.1,31.7-70.9,70.9-70.9   C124.2,14.2,155.9,45.9,155.9,85z"/>
</g>
</svg>