<?xml version="1.0" encoding="UTF-8"?>
<!-- Generator: Adobe Illustrator 22.1.0, SVG Export Plug-In . SVG Version: 6.00 Build 0)  -->
<svg version="1.1" id="レイヤー_1" xmlns="http://www.w3.org/2000/svg" xmlns:xlink="http://www.w3.org/1999/xlink" x="0px" y="0px" viewBox="0 0 170.1 170.1" style="enable-background:new 0 0 170.1 170.1;" xml:space="preserve">
<style type="text/css">
	.st0{fill:none;stroke:#000000;stroke-width:1.5475;}
</style>
<g>
	<path d="M58.3,57.5c-1.8-1.9-5.1-4.5-8.5-6l-1.2,2.2h-0.1v-2.1c0-1.8,0.1-3.5,0.3-5.4c0.9-0.3,1-0.6,1-0.9c0-0.2-0.2-0.4-0.5-0.4   l-3.6-0.4c0.1,2.5,0.2,4.8,0.2,7.2v5.8c0,2.8-0.3,5.7-0.6,8.4h3.4c-0.1-2.6-0.2-5.7-0.2-8.5v-3.5c3.2,1.2,6,3.4,7.9,5.7L58.3,57.5z    M58.2,45.8c0.9,0.6,2,1.6,2.7,2.7l1.5-1.4c-0.9-1.1-2-2-2.9-2.6L58.2,45.8z M54.8,47.8c0.9,0.5,2.1,1.6,2.7,2.6L59,49   c-0.6-0.9-1.8-2-2.7-2.5L54.8,47.8z"/>
	<path d="M80.8,66.6c5.7-2.4,10.1-5.6,12.6-11.6c0.4-1,0.9-1.9,1.8-2.8l-2.1-2.1c-0.9,0.6-2.4,0.7-5.1,0.7h-6.4   c-2.1,0-4.1-0.2-6.2-0.3v2.9c2.5-0.2,5-0.3,7.6-0.3h8.4c-1.1,4.1-6.2,10.4-12.7,11.2L80.8,66.6z M78.6,47.3   c1.4-0.1,2.9-0.2,4.3-0.2h4.3c1.5,0,2.9,0.1,4.4,0.2v-2.6c-1.5,0.1-2.9,0.2-4.4,0.2h-4.3c-1.4,0-2.9-0.1-4.3-0.2V47.3z"/>
	<path d="M109.4,55.8c7.4-2.4,12.4-6.5,16.1-11.7l2.4,1.8c0.2,0.1,0.3,0.3,0.3,0.5c0,0.3-0.3,0.6-1.3,0.5c-1.5,1.7-3.6,3.7-5.3,5.1   v7.1c0,2.4,0.2,4.9,0.3,7.4h-2.8c0-2.5,0.2-5,0.2-7.6v-5.1c-2.3,1.7-4.6,3-7.3,4L109.4,55.8z"/>
	<path d="M52,113.8c1.4-1.8,3.7-5.4,4.3-6.4c0.5-0.6,1.1-1,1.8-1.4l-2.1-2.1c-1.1,0.7-2.4,0.8-5.3,1l-4.7,0.3c0-1.7,0.2-3.9,0.4-5.2   c0.6-0.3,0.8-0.5,0.8-0.8c0-0.2-0.1-0.4-0.4-0.4l-3.5-0.4c0.2,2.1,0.2,2.8,0.2,6.9c-2.8,0.1-5.1,0.2-6.7,0.2l0.5,2.9   c2-0.3,4.1-0.6,6.2-0.8v2.6c0,1.4,0,2.8,0,4.1c0,3.2,1.1,4.3,5.7,4.3c2,0,6.2-0.3,7.1-0.4v-2.7c-1.8,0.4-3.9,0.7-7,0.7   c-2.7,0-3.4-0.8-3.4-3c0-1,0.1-1.9,0.1-3.1v-2.8l7.8-0.7c-1.5,2.7-3,4.3-4.2,5.5L52,113.8z"/>
	<path d="M62.3,103.6c1.9-0.1,3.7-0.3,5.6-0.7l1.5-0.3c-0.5-1.7-1.1-3.7-1.8-5.1l3.2-0.3c0.4,0,0.7,0,0.7,0.3c0,0.3-0.2,0.6-0.6,0.9   c0.2,1.2,0.5,2.5,0.9,3.7l1.4-0.3c2.1-0.4,3.5-0.9,4.8-1.4l0.6,2.6c-1.6,0.2-3.2,0.4-4.8,0.7l-1.5,0.3l1.1,4.2l2.6-0.5   c1.9-0.3,3.8-0.8,5.6-1.4l0.7,2.7c-2.2,0.3-4.1,0.5-5.6,0.8l-2.7,0.5l0.2,0.7c0.8,3.2,1.7,5.8,2.5,7.9l-3.3,0.7   c-0.2-2.1-0.9-5.4-1.6-8.3l-0.2-0.6l-3.1,0.6c-2.1,0.4-4.5,0.9-6.2,1.5l-0.6-2.9c2.1-0.2,4-0.3,6.7-0.8l2.7-0.5l-1.1-4.2l-1.6,0.3   c-1.6,0.3-3.9,0.9-5.3,1.5L62.3,103.6z"/>
	<path d="M108.6,116.6c-3.5-0.3-5.2-0.3-7.9-0.3h-7.3c-2.4,0-5.6,0.1-7.9,0.3v-2.7c2.8,0.2,5.3,0.3,7.8,0.3H99   c0.6-3.6,1.2-7.2,1.6-10.8h-4.5c-2.1,0-4.4,0.1-6,0.2v-2.6c1.7,0.1,3.5,0.3,5,0.3h4.3c1.5,0,3.1-0.1,4.6-0.2c-0.5,3-1,5.5-1.3,7.3   l-0.9,5.8c2.9-0.1,4.3-0.1,6.8-0.3V116.6z"/>
	<path d="M118.1,113.1c-1.2,2-4.1,4.1-6.3,4.8l2.1,2.1c2.9-1.4,4.3-2.7,5.8-4.7c0.5,0,1-0.1,1-0.4c0-0.2-0.2-0.4-0.4-0.5   L118.1,113.1z M127.9,101c-1.1,2.4-2.6,4.2-3.9,5.7c-0.8-0.8-1.6-1.4-2.5-2.1l3.1-4.7c1.9-0.2,5.5-0.8,7.2-1.2   c0.3,0.1,0.7,0.2,1,0.2c0.2,0,0.4-0.2,0.4-0.4c0-0.2-0.1-0.3-0.3-0.5l-1.8-1.8c-4.9,1.5-9.2,1.5-11.6,1.5c-2.1,0-4.2,0-6.3-0.3   l1.4,2.6c1.8,0.1,5,0.1,6.8-0.1l-1.9,3.1c-0.7-0.4-1.4-0.8-2.2-1.1l-1.3,2.1c2.3,1.1,4.4,2.5,6.3,4.3c-0.3,0.3-0.6,0.6-0.9,0.9   c-2.1,0.1-6.9,0.2-9.2,0.1l0.3,2.7c0,0.3,0.1,0.6,0.3,0.6c0.3,0,0.5-0.3,0.7-0.8c2-0.1,6.6-0.3,9-0.4v4.3c0,1.7-0.1,3.4-0.4,5.1   h3.2c-0.2-1.7-0.3-3.4-0.3-5.1v-4.4c2.6-0.1,5.2-0.2,7.8-0.3c0.3,0.6,0.5,1.3,0.7,2l2.4-1.6c-1-2.1-2.4-4.1-4.2-5.7l-2,1.4   c0.6,0.6,1.2,1.2,1.7,1.9c-0.8,0.1-5.4,0.2-6.8,0.2c1.8-1.8,3.5-3.7,4.9-5.8c0.5,0,1,0,1-0.4c0-0.2-0.1-0.3-0.3-0.4L127.9,101z    M127.2,114.7c1.6,2.4,4,4.4,6.8,5.3l1.9-2.2c-2.8-0.8-5.2-2.4-6.8-4.8L127.2,114.7z"/>
	<path class="st0" d="M15.5,74.4C33,74.4,33,85,50.4,85c17.9,0,17.9-10.6,35.8-10.6c17.3,0,17.3,10.6,34.6,10.6   c16.7,0,16.7-10.6,33.5-10.6"/>
	<path class="st0" d="M155.9,85c0,39.1-31.7,70.9-70.9,70.9c-39.1,0-70.9-31.7-70.9-70.9c0-39.1,31.7-70.9,70.9-70.9   C124.2,14.2,155.9,45.9,155.9,85z"/>
</g>
</svg>