<?xml version="1.0" encoding="UTF-8" standalone="no"?>
<!-- Created with Inkscape (http://www.inkscape.org/) -->

<svg
   version="1.0"
   x="0.0000000"
   y="0.0000000"
   width="375.00000"
   height="375.00000"
   id="svg1568"
   sodipodi:docname="pro_not_chem_2.svg"
   inkscape:version="1.3.2 (091e20ef0f, 2023-11-25, custom)"
   xmlns:inkscape="http://www.inkscape.org/namespaces/inkscape"
   xmlns:sodipodi="http://sodipodi.sourceforge.net/DTD/sodipodi-0.dtd"
   xmlns="http://www.w3.org/2000/svg"
   xmlns:svg="http://www.w3.org/2000/svg">
  <sodipodi:namedview
     id="namedview1"
     pagecolor="#ffffff"
     bordercolor="#000000"
     borderopacity="0.25"
     inkscape:showpageshadow="2"
     inkscape:pageopacity="0.0"
     inkscape:pagecheckerboard="0"
     inkscape:deskcolor="#d1d1d1"
     inkscape:zoom="1.5141513"
     inkscape:cx="188.88469"
     inkscape:cy="207.70711"
     inkscape:window-width="1920"
     inkscape:window-height="1012"
     inkscape:window-x="0"
     inkscape:window-y="32"
     inkscape:window-maximized="1"
     inkscape:current-layer="g4032" />
  <defs
     id="defs1570">
    <linearGradient
       id="linearGradient2783">
      <stop
         style="stop-color:#000000;stop-opacity:1.0000000"
         offset="0.0000000"
         id="stop2784" />
      <stop
         style="stop-color:#ffffff;stop-opacity:1.0000000"
         offset="1.0000000"
         id="stop2785" />
    </linearGradient>
  </defs>
  <g
     id="g4032"
     transform="translate(-0.45050714,-4.170022)">
    <path
       d="M 55.799488,93.75 318.75,319.05449"
       transform="matrix(1,0,0,0.825462,0.450512,30.02228)"
       style="fill:none;fill-opacity:1;fill-rule:evenodd;stroke:#000000;stroke-width:13.75819531;stroke-linecap:round;stroke-linejoin:miter;stroke-miterlimit:4;stroke-dasharray:none;stroke-opacity:1"
       id="path2208" />
    <path
       d="M 319.20051,93.75 56.25,319.05449"
       transform="matrix(1,0,0,0.825462,0.450512,30.02228)"
       style="fill:none;fill-opacity:1;fill-rule:evenodd;stroke:#000000;stroke-width:13.75819531;stroke-linecap:round;stroke-linejoin:miter;stroke-miterlimit:4;stroke-dasharray:none;stroke-opacity:1"
       id="path2831" />
    <path
       d="M 311.48582,187.50000 C 311.49647,118.79457 255.98301,63.092151 187.50000,63.092151 C 119.01699,63.092151 63.503530,118.79457 63.514183,187.50000 C 63.503530,256.20543 119.01699,311.90785 187.50000,311.90785 C 255.98301,311.90785 311.49647,256.20543 311.48582,187.50000 L 311.48582,187.50000 z "
       transform="matrix(0.905299,0,0,0.934737,18.206947,25.136302)"
       style="fill:none;fill-opacity:0.75;fill-rule:evenodd;stroke:#000000;stroke-width:13.58843;stroke-linecap:butt;stroke-linejoin:miter;stroke-miterlimit:4;stroke-opacity:1"
       id="path1580" />
    <path
       d="m 144.39633,137.47611 c 1.45581,0.97055 3.23513,2.58811 4.36743,4.36744 l 2.42635,-2.10284 c -1.45581,-1.77932 -3.23513,-3.23514 -4.52919,-4.04392 z m 0.32351,18.76379 c -2.74986,-3.07338 -8.24959,-7.27906 -13.58757,-9.54365 l -1.94107,3.55865 h -0.16176 v -3.39689 c 0,-2.91163 0.16176,-5.66149 0.48527,-8.73487 1.29405,-0.48527 1.61756,-0.97054 1.61756,-1.45581 0,-0.32352 -0.32351,-0.64703 -0.80878,-0.64703 l -5.82324,-0.64702 c 0.16176,4.04391 0.32351,7.76432 0.32351,11.48473 v 9.38189 c 0,4.52919 -0.48527,9.22013 -0.97054,13.42581 h 5.49973 c -0.16175,-4.20568 -0.32351,-9.22014 -0.32351,-13.74933 v -5.49973 c 5.17621,1.94108 9.54364,5.49973 12.77878,9.22014 z m -5.66148,-15.69041 c 1.4558,0.80878 3.39688,2.58811 4.36743,4.20568 l 2.42635,-2.2646 c -0.97054,-1.29405 -2.91162,-3.23513 -4.36743,-4.04391 z"
       id="path1"
       style="stroke-width:1.61757" />
    <path
       d="m 177.23295,139.74071 c 2.26459,-0.16176 4.69094,-0.32352 6.95554,-0.32352 h 6.95554 c 2.26459,0 4.69094,0.16176 7.11729,0.32352 v -4.20568 c -2.42635,0.16176 -4.69095,0.32351 -7.11729,0.32351 h -6.95554 c -2.2646,0 -4.69095,-0.16175 -6.95554,-0.32351 z m 3.55864,31.05729 c 9.05838,-3.88216 16.17568,-9.05838 20.21959,-18.76378 0.64703,-1.45581 1.45581,-3.07338 2.74987,-4.52919 l -3.39689,-3.39689 c -1.45581,0.97054 -3.88217,1.1323 -8.2496,1.1323 h -10.19067 c -3.39689,0 -6.63202,-0.32351 -10.02892,-0.48527 v 4.69094 c 4.04392,-0.32351 8.08784,-0.48527 12.13176,-0.48527 h 13.58756 c -1.77932,6.47027 -10.02892,16.8227 -20.38134,17.955 z"
       id="path2"
       style="stroke-width:1.61757" />
    <path
       d="m 230.93618,156.72516 c 4.36743,-1.61756 7.92608,-3.7204 11.64648,-6.47026 v 8.24959 c 0,4.04392 -0.16175,8.08784 -0.32351,12.13175 h 4.52919 c -0.16176,-3.88216 -0.48527,-7.92607 -0.48527,-11.80823 v -11.48473 c 2.74987,-2.10284 6.14676,-5.49973 8.57311,-8.08784 1.61756,0.16175 2.10283,-0.32352 2.10283,-0.80878 0,-0.32352 -0.16175,-0.64704 -0.48527,-0.80879 l -3.88216,-2.91162 c -5.985,8.41135 -13.91108,14.88162 -25.88107,18.76378 z"
       id="path3"
       style="stroke-width:1.61757" />
    <path
       class="st0"
       d="m 75.811473,183.41502 c 28.145667,0 28.145667,17.14622 56.129587,17.14622 28.7927,-0.16176 28.7927,-17.14622 57.58539,-17.14622 27.82217,0 27.82217,17.14622 55.64432,17.14622 26.85162,0 26.85162,-17.14622 53.86499,-17.14622"
       id="path4"
       style="fill:none;stroke:#000000;stroke-width:12.5;stroke-dasharray:none" />
  </g>
</svg>
