<?xml version="1.0" encoding="UTF-8"?>
<!-- Generator: Adobe Illustrator 22.1.0, SVG Export Plug-In . SVG Version: 6.00 Build 0)  -->
<svg version="1.1" id="レイヤー_1" xmlns="http://www.w3.org/2000/svg" xmlns:xlink="http://www.w3.org/1999/xlink" x="0px" y="0px" viewBox="0 0 170.1 170.1" style="enable-background:new 0 0 170.1 170.1;" xml:space="preserve">
<style type="text/css">
	.st0{fill:none;stroke:#000000;stroke-width:1.5475;}
</style>
<g>
	<line class="st0" x1="29.4" y1="30.2" x2="155.9" y2="158.4"/>
	<line class="st0" x1="149.1" y1="30.2" x2="22.5" y2="158.4"/>
	<path d="M69.2,86.3c-1.7,0.1-3.5,0.2-5.2,0.2h-4.2c-1.6,0-3.3-0.1-5-0.2v2.2c1.7-0.1,3.5-0.1,5.3-0.1h0.7v10.4H59   c-1.9,0-3.9-0.1-5.9-0.2v2.3c2-0.1,3.9-0.2,5.9-0.2h5.8c2,0,3.9,0.1,5.9,0.2v-2.3c-2,0.1-3.9,0.2-5.9,0.2h-1.6V88.3h0.8   c1.7,0,3.5,0.1,5.2,0.2V86.3z"/>
	<path d="M90.1,89.5c-4.3,5.4-10.9,8.7-16.2,9.7l1.2,2.4c0.2,0.3,0.3,0.5,0.5,0.5c0.3,0,0.4-0.4,0.5-0.7c5.8-2.3,10.6-5.3,14.9-9.8   L90.1,89.5z M74.3,86.4c1.9,0.8,3.7,2,5,3.2l1.3-2c-1.2-1.1-3-2.2-5.1-3.2L74.3,86.4z"/>
	<path d="M93.1,87.7c1.3,1,2.6,3.1,3.2,4.5l1.9-1.4c-0.5-1.3-2.2-3.4-3.4-4.5L93.1,87.7z M97.5,101.9c5.7-2.1,10.3-6.2,11.7-14.7   c0.4-0.1,0.8-0.3,0.8-0.5c0-0.2-0.2-0.4-0.5-0.5l-2.6-1.1c-0.2,7.9-4.7,13.3-11.2,15L97.5,101.9z"/>
	<path d="M59.1,129.7c4.9-2.4,6.5-4.6,6.5-10.4H60v1.4c0,1.4,0.1,2.8,0.3,4.3h-2.4c0.1-0.8,0.2-3.1,0.2-4.5v-1.2   c-2.2,0.1-3.2,0.1-4.9,0.2v-2.2c1.4,0.1,3.5,0.2,4.9,0.2V117c0-1.5-0.1-3-0.2-4.5l2.6,0.2c0.2,0,0.4,0.2,0.4,0.4   c0,0.3-0.1,0.4-0.7,0.7c-0.2,1.3-0.2,2.7-0.2,3.6h5.6c0-1.5-0.2-3.7-0.4-5.4l2.4,0.2c0.5,0,0.8,0.2,0.8,0.4c0,0.2-0.3,0.5-0.6,0.7   c0.1,1.4,0.1,2.7,0.1,4.1c1.5,0,2.7-0.1,4.2-0.2v2.2c-1.6-0.1-2.9-0.1-4.2-0.2c-0.3,7.1-2.2,9.4-6.8,11.9L59.1,129.7z"/>
	<path d="M77.5,129c5.6-0.7,10-6.2,11-9.7h-7.3c-2.2,0-4.4,0.1-6.5,0.3v-2.5c1.8,0.1,3.6,0.3,5.4,0.3h5.5c2.4,0,3.6-0.1,4.4-0.6   l1.8,1.8c-0.8,0.7-1.2,1.6-1.5,2.4c-2.2,5.2-6,8-10.9,10.1L77.5,129z M77.5,112.1c1.2,0.1,2.5,0.2,3.7,0.2h3.7   c1.3,0,2.5-0.1,3.8-0.2v2.3c-1.3-0.1-2.5-0.2-3.8-0.2h-3.7c-1.2,0-2.5,0.1-3.7,0.2V112.1z"/>
	<path d="M94.2,118.9c1.2,0.3,3.9,1.5,5.1,2.4l1.1-1.8c-1.9-1.2-3.2-1.7-5.2-2.5L94.2,118.9z M96.8,113.2c1.3,0.5,4.1,1.8,5.2,2.6   l0.9-1.8c-1.6-1.2-3.4-2-5.2-2.7L96.8,113.2z M110,117.3c-3.3,5.5-9.8,10.3-14.6,11.5l1.6,2.1c0.2,0.3,0.4,0.4,0.6,0.4   c0.3,0,0.4-0.4,0.5-0.7c4.9-2.6,9.3-5.9,13.3-11.4L110,117.3z"/>
	<path class="st0" d="M94.6,11.7c0,0,0,17,0,25.5c0,8.5,44.2,74.8,51,83.3c6.8,8.5,5.1,22.1-8.5,22.1c-13.6,0-96.9,0-110.5,0   c-13.6,0-15.3-13.6-8.5-22.1c6.8-8.5,51-74.8,51-83.3c0-8.5,0-25.5,0-25.5"/>
</g>
</svg>