<?xml version="1.0" encoding="UTF-8"?>
<!-- Generator: Adobe Illustrator 22.1.0, SVG Export Plug-In . SVG Version: 6.00 Build 0)  -->
<svg version="1.1" id="レイヤー_1" xmlns="http://www.w3.org/2000/svg" xmlns:xlink="http://www.w3.org/1999/xlink" x="0px" y="0px" viewBox="0 0 170.1 170.1" style="enable-background:new 0 0 170.1 170.1;" xml:space="preserve">
<style type="text/css">
	.st0{fill:none;stroke:#000000;stroke-width:1.5475;}
</style>
<g>
	<path d="M71.9,96.9c-1.8-0.1-3.6-0.2-5.4-0.2h-0.9v10.9h1.6c2.1,0,4.1-0.1,6.2-0.2v2.4c-2.1-0.1-4.1-0.2-6.2-0.2h-6.1   c-2,0-4.1,0.1-6.2,0.2v-2.4c2,0.1,4.1,0.2,6.2,0.2h1.9V96.7h-0.8c-1.8,0-3.7,0-5.5,0.1v-2.3c1.7,0.1,3.5,0.2,5.2,0.2h4.4   c1.8,0,3.7-0.1,5.5-0.2V96.9z"/>
	<path d="M78.5,92.6c2.2,1.1,4,2.2,5.3,3.3l-1.4,2.1c-1.4-1.2-3.3-2.5-5.2-3.3L78.5,92.6z M94.7,100.3c-4.5,4.7-9.5,7.8-15.6,10.2   c-0.1,0.3-0.2,0.7-0.5,0.7c-0.2,0-0.3-0.3-0.5-0.6l-1.3-2.5c5.5-1.1,12.4-4.6,16.9-10.2L94.7,100.3z"/>
	<path d="M98.8,94.5c1.2,1.2,3,3.4,3.5,4.8l-2,1.5c-0.6-1.4-2-3.6-3.4-4.7L98.8,94.5z M99.6,109.1c6.8-1.8,11.5-7.5,11.7-15.7   l2.8,1.2c0.3,0.1,0.5,0.3,0.5,0.5c0,0.2-0.4,0.4-0.8,0.5c-1.4,8.9-6.3,13.2-12.3,15.4L99.6,109.1z"/>
	<path d="M63.3,141.7c4.8-2.6,6.8-5.1,7.1-12.5c1.4,0,2.7,0.1,4.4,0.2V127c-1.6,0.1-2.9,0.1-4.4,0.2c0-1.4,0-2.8-0.1-4.3   c0.4-0.3,0.7-0.5,0.7-0.8c0-0.2-0.4-0.3-0.8-0.4l-2.5-0.2c0.3,1.8,0.4,4.1,0.4,5.7h-5.9c0-1,0-2.4,0.2-3.8c0.6-0.3,0.7-0.5,0.7-0.7   c0-0.2-0.2-0.4-0.4-0.4l-2.7-0.2c0.1,1.6,0.2,3.1,0.2,4.7v0.5c-1.5,0-3.7-0.1-5.1-0.2v2.3c1.8-0.1,2.8-0.1,5.1-0.2v1.2   c0,1.5-0.1,3.9-0.2,4.7h2.5c-0.1-1.5-0.3-3-0.3-4.5v-1.5h5.9c0,6.1-1.7,8.4-6.9,10.9L63.3,141.7z"/>
	<path d="M80.6,139.3c5.9-0.7,10.5-6.5,11.5-10.1h-7.6c-2.3,0-4.6,0.1-6.9,0.3v-2.6c1.9,0.1,3.8,0.3,5.6,0.3H89   c2.5,0,3.8-0.1,4.6-0.6l1.9,1.9c-0.8,0.8-1.2,1.7-1.6,2.5c-2.3,5.4-6.3,8.4-11.4,10.5L80.6,139.3z M80.5,121.7   c1.3,0.1,2.6,0.2,3.9,0.2h3.9c1.3,0,2.6-0.1,4-0.2v2.4c-1.3-0.1-2.6-0.2-4-0.2h-3.9c-1.3,0-2.6,0.1-3.9,0.2V121.7z"/>
	<path d="M100.7,122.8c1.3,0.5,4.3,1.9,5.5,2.7l0.9-1.9c-1.7-1.2-3.6-2-5.4-2.8L100.7,122.8z M98.1,128.7c1.3,0.4,4.1,1.5,5.4,2.5   l1.1-1.9c-2-1.2-3.4-1.8-5.5-2.6L98.1,128.7z M114.6,127.1c-3.4,5.8-10.2,10.8-15.2,12.1l1.7,2.2c0.2,0.3,0.4,0.4,0.7,0.4   c0.3,0,0.4-0.4,0.5-0.7c5.1-2.7,9.7-6.1,13.9-11.9L114.6,127.1z"/>
	<path class="st0" d="M98.4,16.5c0,0,0,17.8,0,26.7c0,8.9,46.3,78.4,53.4,87.3s5.3,23.2-8.9,23.2s-101.5,0-115.8,0   c-14.2,0-16-14.2-8.9-23.2c7.1-8.9,53.4-78.4,53.4-87.3c0-8.9,0-26.7,0-26.7"/>
</g>
</svg>