<?xml version="1.0" encoding="UTF-8" standalone="no"?>
<!-- Generator: Adobe Illustrator 22.1.0, SVG Export Plug-In . SVG Version: 6.00 Build 0)  -->

<svg
   version="1.1"
   id="レイヤー_1"
   x="0px"
   y="0px"
   viewBox="0 0 374.99999 374.99999"
   xml:space="preserve"
   sodipodi:docname="bleach_2.svg"
   width="375"
   height="375"
   inkscape:version="1.3.2 (091e20ef0f, 2023-11-25, custom)"
   xmlns:inkscape="http://www.inkscape.org/namespaces/inkscape"
   xmlns:sodipodi="http://sodipodi.sourceforge.net/DTD/sodipodi-0.dtd"
   xmlns="http://www.w3.org/2000/svg"
   xmlns:svg="http://www.w3.org/2000/svg"><defs
   id="defs7" /><sodipodi:namedview
   id="namedview7"
   pagecolor="#ffffff"
   bordercolor="#000000"
   borderopacity="0.25"
   inkscape:showpageshadow="2"
   inkscape:pageopacity="0.0"
   inkscape:pagecheckerboard="0"
   inkscape:deskcolor="#d1d1d1"
   inkscape:zoom="1.669038"
   inkscape:cx="210.60036"
   inkscape:cy="159.67282"
   inkscape:window-width="1920"
   inkscape:window-height="1012"
   inkscape:window-x="0"
   inkscape:window-y="32"
   inkscape:window-maximized="1"
   inkscape:current-layer="g7" />
<style
   type="text/css"
   id="style1">
	.st0{fill:none;stroke:#000000;stroke-width:1.5475;}
</style>
<g
   id="g7"
   transform="matrix(1.8695748,0,0,1.8695748,28.586138,27.675895)">
	<path
   d="m 71.9,96.9 c -1.8,-0.1 -3.6,-0.2 -5.4,-0.2 h -0.9 v 10.9 h 1.6 c 2.1,0 4.1,-0.1 6.2,-0.2 v 2.4 c -2.1,-0.1 -4.1,-0.2 -6.2,-0.2 h -6.1 c -2,0 -4.1,0.1 -6.2,0.2 v -2.4 c 2,0.1 4.1,0.2 6.2,0.2 H 63 V 96.7 h -0.8 c -1.8,0 -3.7,0 -5.5,0.1 v -2.3 c 1.7,0.1 3.5,0.2 5.2,0.2 h 4.4 c 1.8,0 3.7,-0.1 5.5,-0.2 v 2.4 z"
   id="path1" />
	<path
   d="m 78.5,92.6 c 2.2,1.1 4,2.2 5.3,3.3 L 82.4,98 C 81,96.8 79.1,95.5 77.2,94.7 Z m 16.2,7.7 c -4.5,4.7 -9.5,7.8 -15.6,10.2 -0.1,0.3 -0.2,0.7 -0.5,0.7 -0.2,0 -0.3,-0.3 -0.5,-0.6 l -1.3,-2.5 c 5.5,-1.1 12.4,-4.6 16.9,-10.2 z"
   id="path2" />
	<path
   d="m 98.8,94.5 c 1.2,1.2 3,3.4 3.5,4.8 l -2,1.5 c -0.6,-1.4 -2,-3.6 -3.4,-4.7 z m 0.8,14.6 c 6.8,-1.8 11.5,-7.5 11.7,-15.7 l 2.8,1.2 c 0.3,0.1 0.5,0.3 0.5,0.5 0,0.2 -0.4,0.4 -0.8,0.5 -1.4,8.9 -6.3,13.2 -12.3,15.4 z"
   id="path3" />
	<path
   d="m 63.3,141.7 c 4.8,-2.6 6.8,-5.1 7.1,-12.5 1.4,0 2.7,0.1 4.4,0.2 V 127 c -1.6,0.1 -2.9,0.1 -4.4,0.2 0,-1.4 0,-2.8 -0.1,-4.3 0.4,-0.3 0.7,-0.5 0.7,-0.8 0,-0.2 -0.4,-0.3 -0.8,-0.4 l -2.5,-0.2 c 0.3,1.8 0.4,4.1 0.4,5.7 h -5.9 c 0,-1 0,-2.4 0.2,-3.8 0.6,-0.3 0.7,-0.5 0.7,-0.7 0,-0.2 -0.2,-0.4 -0.4,-0.4 L 60,122.1 c 0.1,1.6 0.2,3.1 0.2,4.7 v 0.5 c -1.5,0 -3.7,-0.1 -5.1,-0.2 v 2.3 c 1.8,-0.1 2.8,-0.1 5.1,-0.2 v 1.2 c 0,1.5 -0.1,3.9 -0.2,4.7 h 2.5 c -0.1,-1.5 -0.3,-3 -0.3,-4.5 v -1.5 h 5.9 c 0,6.1 -1.7,8.4 -6.9,10.9 z"
   id="path4" />
	<path
   d="m 80.6,139.3 c 5.9,-0.7 10.5,-6.5 11.5,-10.1 h -7.6 c -2.3,0 -4.6,0.1 -6.9,0.3 v -2.6 c 1.9,0.1 3.8,0.3 5.6,0.3 H 89 c 2.5,0 3.8,-0.1 4.6,-0.6 l 1.9,1.9 c -0.8,0.8 -1.2,1.7 -1.6,2.5 -2.3,5.4 -6.3,8.4 -11.4,10.5 z m -0.1,-17.6 c 1.3,0.1 2.6,0.2 3.9,0.2 h 3.9 c 1.3,0 2.6,-0.1 4,-0.2 v 2.4 c -1.3,-0.1 -2.6,-0.2 -4,-0.2 h -3.9 c -1.3,0 -2.6,0.1 -3.9,0.2 z"
   id="path5" />
	<path
   d="m 100.7,122.8 c 1.3,0.5 4.3,1.9 5.5,2.7 l 0.9,-1.9 c -1.7,-1.2 -3.6,-2 -5.4,-2.8 z m -2.6,5.9 c 1.3,0.4 4.1,1.5 5.4,2.5 l 1.1,-1.9 c -2,-1.2 -3.4,-1.8 -5.5,-2.6 z m 16.5,-1.6 c -3.4,5.8 -10.2,10.8 -15.2,12.1 l 1.7,2.2 c 0.2,0.3 0.4,0.4 0.7,0.4 0.3,0 0.4,-0.4 0.5,-0.7 5.1,-2.7 9.7,-6.1 13.9,-11.9 z"
   id="path6" />
	<path
   class="st0"
   d="M 98.4,19.709286 V 43.2 c 0,8.9 46.3,78.4 53.4,87.3 7.1,8.9 5.3,23.2 -8.9,23.2 H 27.1 c -14.2,0 -16,-14.2 -8.9,-23.2 7.1,-8.9 53.4,-78.4 53.4,-87.3 V 19.709286"
   id="path7"
   style="stroke-width:6.68601;stroke-linecap:round;stroke-dasharray:none"
   sodipodi:nodetypes="csssscsc" />
</g>
</svg>
