<?xml version="1.0" encoding="UTF-8" standalone="no"?>
<!-- Created with Inkscape (http://www.inkscape.org/) -->

<svg
   version="1.0"
   x="0.0000000"
   y="0.0000000"
   width="375.00000"
   height="375.00000"
   id="svg1"
   sodipodi:docname="favicon.svg"
   inkscape:version="1.2.2 (b0a8486541, 2022-12-01)"
   xmlns:inkscape="http://www.inkscape.org/namespaces/inkscape"
   xmlns:sodipodi="http://sodipodi.sourceforge.net/DTD/sodipodi-0.dtd"
   xmlns="http://www.w3.org/2000/svg"
   xmlns:svg="http://www.w3.org/2000/svg">
  <sodipodi:namedview
     id="namedview53"
     pagecolor="#ffffff"
     bordercolor="#000000"
     borderopacity="0.25"
     inkscape:showpageshadow="2"
     inkscape:pageopacity="0.0"
     inkscape:pagecheckerboard="0"
     inkscape:deskcolor="#d1d1d1"
     showgrid="false"
     inkscape:zoom="2.12"
     inkscape:cx="93.160377"
     inkscape:cy="187.5"
     inkscape:window-width="1920"
     inkscape:window-height="1011"
     inkscape:window-x="0"
     inkscape:window-y="32"
     inkscape:window-maximized="1"
     inkscape:current-layer="g2806" />
  <defs
     id="defs3" />
  <rect
     style="fill:#ecfeff;fill-opacity:1;stroke-width:1.16549"
     id="rect265"
     width="375"
     height="375"
     x="0"
     y="0"
     ry="76.929657" />
  <g
     id="g2806"
     transform="matrix(0.83737325,0,0,0.83737325,30.134838,25.599338)">
    <path
       d="m 46.750361,146.02723 c 23.458276,0 23.458276,-20.88981 46.916559,-20.88981 23.45826,0 23.45826,20.88981 46.91653,20.88981 23.4583,0 23.4583,-20.88981 46.91655,-20.88981 23.45827,0 23.45827,20.88981 46.91656,20.88981 23.45827,0 23.45827,-20.88981 46.91653,-20.88981 23.45827,0 23.45827,20.88981 46.91655,20.88981"
       style="fill:none;fill-opacity:1;fill-rule:evenodd;stroke:#000000;stroke-width:12.5;stroke-linecap:butt;stroke-linejoin:miter;stroke-miterlimit:4;stroke-opacity:1"
       id="path650" />
    <path
       d="M 37.854546,107.35059 72.251705,279.33638 H 302.56667 l 35.43307,-171.98579"
       style="fill:none;fill-opacity:1;fill-rule:evenodd;stroke:#000000;stroke-width:12.5;stroke-linecap:round;stroke-linejoin:round;stroke-miterlimit:4;stroke-dashoffset:0;stroke-opacity:1"
       id="path651" />
  </g>
</svg>
