<?xml version="1.0" encoding="UTF-8"?>
<!-- Generator: Adobe Illustrator 22.1.0, SVG Export Plug-In . SVG Version: 6.00 Build 0)  -->
<svg version="1.1" id="レイヤー_1" xmlns="http://www.w3.org/2000/svg" xmlns:xlink="http://www.w3.org/1999/xlink" x="0px" y="0px" viewBox="0 0 170.1 170.1" style="enable-background:new 0 0 170.1 170.1;" xml:space="preserve">
<style type="text/css">
	.st0{fill:none;stroke:#000000;stroke-width:1.5475;}
	.st1{fill:#FFFFFF;stroke:#000000;stroke-width:1.548;stroke-miterlimit:10;}
</style>
<g>
	<path class="st0" d="M85,41.1c17.6,0,20.5-17.3,20.5-17.3s35.3,10.6,35.3,40.8c0,30.2,6.7,62.1,15.1,67.2l-18.5,13.4   c0,0-18.5-13.4-18.5-25.2c0,0-6.7,25.2,3.4,36.9H47.8c10.1-11.8,3.4-36.9,3.4-36.9c0,11.8-18.5,25.2-18.5,25.2l-18.5-13.4   c8.4-5,15.1-36.9,15.1-67.2c0-30.2,35.3-40.8,35.3-40.8S67.4,41.1,85,41.1z"/>
	<path class="st0" d="M52.8,62.9c0,0-11.8,33.6-1.7,57.1"/>
	<path class="st0" d="M117.3,62.9c0,0,11.8,33.6,1.7,57.1"/>
	<path class="st1" d="M80.9,22.3v-9.2h8.2v9.2 M89.2,22.3v-9.2h-8.2v9.2 M104.8,27.6c0,0-6.2-5.5-19.7-5.5   c-13.5,0-19.7,5.5-19.7,5.5 M104.8,27.6c0,0-6.2-5.5-19.7-5.5c-13.5,0-19.7,5.5-19.7,5.5"/>
</g>
</svg>