<?xml version="1.0" encoding="UTF-8"?>
<!-- Generator: Adobe Illustrator 22.1.0, SVG Export Plug-In . SVG Version: 6.00 Build 0)  -->
<svg version="1.1" id="レイヤー_1" xmlns="http://www.w3.org/2000/svg" xmlns:xlink="http://www.w3.org/1999/xlink" x="0px" y="0px" viewBox="0 0 170.1 170.1" style="enable-background:new 0 0 170.1 170.1;" xml:space="preserve">
<style type="text/css">
	.st0{fill:none;stroke:#000000;stroke-width:1.5475;}
	.st1{fill:none;stroke:#000000;stroke-width:1.548;}
</style>
<g>
	<path d="M88.9,63c2.8,0,9.5-0.2,11.9-0.4v4c-2.2-0.1-9.3-0.4-11.9-0.4h-2.5v13.5h4.1c3.1,0,9.7-0.2,12.2-0.4v4   c-2.1-0.1-9.4-0.4-12.2-0.4h-4.1v4.6c0,2.9,0.2,7.9,0.4,10.3h-4.8c0.3-2,0.5-7.3,0.5-10.1V83h-4.1c-3.6,0-10,0.2-12.1,0.4v-4   c2.3,0.2,8.5,0.4,12.1,0.4h4.1V66.3h-2.9c-2.6,0-9.6,0.2-11.5,0.4v-4c2,0.3,9.3,0.4,11.6,0.4H88.9z M73.9,67.9   c0.7,0.7,3.3,4.2,4.6,8.5l-3.9,1.8c-1-4.4-3.1-6.9-4.4-8.5L73.9,67.9z M97.7,69.2c0.4,0.2,0.9,0.3,0.9,0.7c0,0.4-0.4,0.5-1.6,0.9   c-1,2.3-2.1,5.7-3.7,7.7l-3.6-1.7c2.9-3.8,3.5-6.6,4-9L97.7,69.2z"/>
	<g>
		<path class="st0" d="M85,35.5c17.6,0,20.5-17.3,20.5-17.3s35.3,10.6,35.3,40.8c0,30.2,6.7,62.1,15.1,67.2l-18.5,13.4    c0,0-18.5-13.4-18.5-25.2c0,0-6.7,25.2,3.4,36.9H47.8c10.1-11.8,3.4-36.9,3.4-36.9c0,11.8-18.5,25.2-18.5,25.2l-18.5-13.4    c8.4-5,15.1-36.9,15.1-67.2c0-30.2,35.3-40.8,35.3-40.8S67.4,35.5,85,35.5z"/>
		<path class="st0" d="M52.8,57.3c0,0-11.8,33.6-1.7,57.1"/>
		<path class="st0" d="M117.3,57.3c0,0,11.8,33.6,1.7,57.1"/>
	</g>
	<line class="st0" x1="99.8" y1="151.9" x2="116.6" y2="138.4"/>
	<line class="st0" x1="79.7" y1="150.2" x2="116.6" y2="120"/>
	<line class="st0" x1="47.8" y1="151.4" x2="121.6" y2="96.5"/>
	<path class="st1" d="M65.3,21.5c0,0,8.7,2,19.4,2c10.7,0,19.4-2,19.4-2"/>
</g>
</svg>