<?xml version="1.0" encoding="UTF-8" standalone="no"?>
<!-- Generator: Adobe Illustrator 22.1.0, SVG Export Plug-In . SVG Version: 6.00 Build 0)  -->

<svg
   version="1.1"
   id="レイヤー_1"
   x="0px"
   y="0px"
   viewBox="0 0 374.99999 374.99999"
   xml:space="preserve"
   sodipodi:docname="dry_line_2.svg"
   width="375"
   height="375"
   inkscape:version="1.3.2 (091e20ef0f, 2023-11-25, custom)"
   xmlns:inkscape="http://www.inkscape.org/namespaces/inkscape"
   xmlns:sodipodi="http://sodipodi.sourceforge.net/DTD/sodipodi-0.dtd"
   xmlns="http://www.w3.org/2000/svg"
   xmlns:svg="http://www.w3.org/2000/svg"><defs
   id="defs5" /><sodipodi:namedview
   id="namedview5"
   pagecolor="#ffffff"
   bordercolor="#000000"
   borderopacity="0.25"
   inkscape:showpageshadow="2"
   inkscape:pageopacity="0.0"
   inkscape:pagecheckerboard="0"
   inkscape:deskcolor="#d1d1d1"
   inkscape:zoom="4.7207523"
   inkscape:cx="173.38338"
   inkscape:cy="129.9581"
   inkscape:window-width="1920"
   inkscape:window-height="1012"
   inkscape:window-x="0"
   inkscape:window-y="32"
   inkscape:window-maximized="1"
   inkscape:current-layer="g5" />
<style
   type="text/css"
   id="style1">
	.st0{fill:none;stroke:#000000;stroke-width:1.5475;}
	.st1{fill:none;stroke:#000000;stroke-width:1.548;}
</style>
<g
   id="g5"
   transform="matrix(2.0588523,0,0,2.0588523,12.403884,12.622262)"
   style="stroke-width:6.07134373;stroke-dasharray:none">
	
	<g
   id="g4"
   style="stroke-width:6.07134373;stroke-dasharray:none">
		<path
   class="st0"
   d="m 85,35.8 c 17.6,0 20.5,-17.3 20.5,-17.3 0,0 35.3,10.6 35.3,40.8 0,30.2 6.7,62.1 15.1,67.2 l -18.5,13.4 c 0,0 -18.5,-13.4 -18.5,-25.2 0,0 -6.7,25.2 3.4,36.9 H 47.8 c 10.1,-11.8 3.4,-36.9 3.4,-36.9 0,11.8 -18.5,25.2 -18.5,25.2 L 14.2,126.5 c 8.4,-5 15.1,-36.9 15.1,-67.2 0,-30.2 35.3,-40.8 35.3,-40.8 0,0 2.8,17.3 20.4,17.3 z"
   id="path2"
   style="stroke-width:6.07134373;stroke-dasharray:none" />
		<path
   class="st0"
   d="m 52.8,57.6 c 0,0 -7.514497,34.106919 -1.592328,57.10006"
   id="path3"
   style="stroke-width:6.07134;stroke-dasharray:none;stroke-linecap:round"
   sodipodi:nodetypes="cc" />
		<path
   class="st0"
   d="m 117.3,57.6 c 0,0 6.11747,36.924749 1.60381,57.04621"
   id="path4"
   style="stroke-width:6.07134;stroke-dasharray:none;stroke-linecap:round"
   sodipodi:nodetypes="cc" />
	<path
   class="st1"
   d="M 80.426964,15.873516 V 6.732578 h 8.147357 v 9.140938 m 0.09935,0 V 6.732578 h -8.147353 v 9.140938 m 23.647212,5.265973 c 0,0 -6.160205,-5.464691 -19.573534,-5.464691 -13.413326,0 -19.573524,5.464691 -19.573524,5.464691 m 39.147058,0 c 0,0 -6.160205,-5.464691 -19.573534,-5.464691 -13.413326,0 -19.573524,5.464691 -19.573524,5.464691"
   id="path4-6"
   style="fill:#ffffff;stroke:#000000;stroke-width:6.07134;stroke-miterlimit:10;stroke-dasharray:none" /></g>
	
</g>
</svg>
