<?xml version="1.0" encoding="UTF-8" standalone="no"?>
<!-- Generator: Adobe Illustrator 22.1.0, SVG Export Plug-In . SVG Version: 6.00 Build 0)  -->

<svg
   version="1.1"
   id="レイヤー_1"
   x="0px"
   y="0px"
   viewBox="0 0 374.99999 374.99999"
   xml:space="preserve"
   sodipodi:docname="dry_flat_shade_2.svg"
   width="375"
   height="375"
   inkscape:version="1.3.2 (091e20ef0f, 2023-11-25, custom)"
   xmlns:inkscape="http://www.inkscape.org/namespaces/inkscape"
   xmlns:sodipodi="http://sodipodi.sourceforge.net/DTD/sodipodi-0.dtd"
   xmlns="http://www.w3.org/2000/svg"
   xmlns:svg="http://www.w3.org/2000/svg"><defs
   id="defs5" /><sodipodi:namedview
   id="namedview5"
   pagecolor="#ffffff"
   bordercolor="#000000"
   borderopacity="0.25"
   inkscape:showpageshadow="2"
   inkscape:pageopacity="0.0"
   inkscape:pagecheckerboard="0"
   inkscape:deskcolor="#d1d1d1"
   inkscape:zoom="2.3603762"
   inkscape:cx="189.16476"
   inkscape:cy="176.87859"
   inkscape:window-width="1920"
   inkscape:window-height="1012"
   inkscape:window-x="0"
   inkscape:window-y="32"
   inkscape:window-maximized="1"
   inkscape:current-layer="g4" />
<style
   type="text/css"
   id="style1">
	.st0{fill:none;stroke:#000000;stroke-width:1.5475;}
	.st1{fill:none;stroke:#000000;stroke-width:1.548;}
</style>
<g
   id="g5"
   transform="matrix(2.0588523,0,0,2.0588523,12.403884,12.622262)"
   style="stroke-width:6.07134373;stroke-dasharray:none">
	<path
   d="m 88.9,62.7 c 2.8,0 9.5,-0.2 11.9,-0.4 v 4 C 98.6,66.3 91.5,66 89,66 h -2.5 v 13.5 h 4.1 c 3.1,0 9.7,-0.2 12.2,-0.4 v 4 C 100.7,83 93.4,82.7 90.6,82.7 h -4.1 v 4.6 c 0,2.9 0.2,7.9 0.4,10.3 h -4.8 c 0.3,-2 0.5,-7.3 0.5,-10.1 v -4.8 h -4.1 c -3.6,0 -10,0.2 -12.1,0.4 v -4 c 2.3,0.2 8.5,0.4 12.1,0.4 h 4.1 V 66 h -2.9 c -2.6,0 -9.6,0.2 -11.5,0.4 v -4 c 2,0.3 9.3,0.4 11.6,0.4 h 9.1 z m -15,5 c 0.7,0.7 3.3,4.2 4.6,8.5 l -4,1.8 c -1,-4.4 -3.1,-6.9 -4.4,-8.5 z M 97.7,69 c 0.4,0.2 0.9,0.3 0.9,0.7 0,0.4 -0.4,0.5 -1.6,0.9 -1,2.3 -2.1,5.7 -3.7,7.7 l -3.6,-1.7 c 2.9,-3.8 3.5,-6.6 4,-9 z"
   id="path1"
   style="stroke-width:6.07134373;stroke-dasharray:none" />
	<g
   id="g4"
   style="stroke-width:6.07134373;stroke-dasharray:none">
		<path
   class="st0"
   d="m 85,35.8 c 17.6,0 20.5,-17.3 20.5,-17.3 0,0 35.3,10.6 35.3,40.8 0,30.2 6.7,62.1 15.1,67.2 l -18.5,13.4 c 0,0 -18.5,-13.4 -18.5,-25.2 0,0 -6.7,25.2 3.4,36.9 H 47.8 c 10.1,-11.8 3.4,-36.9 3.4,-36.9 0,11.8 -18.5,25.2 -18.5,25.2 L 14.2,126.5 c 8.4,-5 15.1,-36.9 15.1,-67.2 0,-30.2 35.3,-40.8 35.3,-40.8 0,0 2.8,17.3 20.4,17.3 z"
   id="path2"
   style="stroke-width:6.07134373;stroke-dasharray:none" />
		<path
   class="st0"
   d="m 52.8,57.6 c 0,0 -7.514497,34.106919 -1.592328,57.10006"
   id="path3"
   style="stroke-width:6.07134;stroke-dasharray:none;stroke-linecap:round"
   sodipodi:nodetypes="cc" />
		<path
   class="st0"
   d="m 117.3,57.6 c 0,0 6.11747,36.924749 1.60381,57.04621"
   id="path4"
   style="stroke-width:6.07134;stroke-dasharray:none;stroke-linecap:round"
   sodipodi:nodetypes="cc" />
	<line
   class="st0"
   x1="94.059967"
   y1="150.65486"
   x2="116.4704"
   y2="133.95847"
   id="line3"
   style="fill:none;stroke:#000000;stroke-width:6.07134;stroke-dasharray:none" /><line
   class="st0"
   x1="70.314278"
   y1="150.75093"
   x2="118.34241"
   y2="115.14259"
   id="line4"
   style="fill:none;stroke:#000000;stroke-width:5.82164;stroke-dasharray:none" /><line
   class="st0"
   x1="50.044716"
   y1="149.12741"
   x2="120.04628"
   y2="97.053062"
   id="line5"
   style="fill:none;stroke:#000000;stroke-width:6.08957;stroke-dasharray:none" /></g>
	<path
   class="st1"
   d="m 65.2,21.6 c 0,0 8.6,2 19.4,2 10.7,0 19.4,-2 19.4,-2"
   id="path5"
   style="stroke-width:6.07134373;stroke-dasharray:none" />
</g>
</svg>
