<?xml version="1.0" encoding="UTF-8" standalone="no"?>
<!-- Generator: Adobe Illustrator 22.1.0, SVG Export Plug-In . SVG Version: 6.00 Build 0)  -->

<svg
   version="1.1"
   id="レイヤー_1"
   x="0px"
   y="0px"
   viewBox="0 0 374.99999 374.99999"
   xml:space="preserve"
   sodipodi:docname="wash_40_mild_machine.svg"
   width="375"
   height="375"
   inkscape:version="1.3.2 (091e20ef0f, 2023-11-25, custom)"
   xmlns:inkscape="http://www.inkscape.org/namespaces/inkscape"
   xmlns:sodipodi="http://sodipodi.sourceforge.net/DTD/sodipodi-0.dtd"
   xmlns="http://www.w3.org/2000/svg"
   xmlns:svg="http://www.w3.org/2000/svg"><defs
   id="defs3" /><sodipodi:namedview
   id="namedview3"
   pagecolor="#ffffff"
   bordercolor="#000000"
   borderopacity="0.25"
   inkscape:showpageshadow="2"
   inkscape:pageopacity="0.0"
   inkscape:pagecheckerboard="0"
   inkscape:deskcolor="#d1d1d1"
   inkscape:zoom="1.669038"
   inkscape:cx="215.99269"
   inkscape:cy="176.44895"
   inkscape:window-width="1920"
   inkscape:window-height="1012"
   inkscape:window-x="0"
   inkscape:window-y="32"
   inkscape:window-maximized="1"
   inkscape:current-layer="レイヤー_1" />
<style
   type="text/css"
   id="style1">
	.st0{fill:none;stroke:#000000;stroke-width:1.5475;}
</style>
<g
   id="g1"
   transform="matrix(1.9595764,0,0,1.9595764,20.823421,23.306963)"
   style="stroke-width:6.37892965;stroke-dasharray:none">
	<rect
   x="28.299999"
   y="16.5"
   class="st0"
   width="113.4"
   height="137.2"
   id="rect1"
   style="stroke-width:6.37892965;stroke-dasharray:none"
   ry="0.60320222" />
	<line
   class="st0"
   x1="28.299999"
   y1="51.5"
   x2="141.7"
   y2="51.5"
   id="line1"
   style="stroke-width:6.37892965;stroke-dasharray:none" />
	<path
   class="st0"
   d="m 129.1,33.920629 c 0,5.6 -4.5,10.1 -10.1,10.1 -5.6,0 -10.1,-4.5 -10.1,-10.1 0,-5.6 4.5,-10.1 10.1,-10.1 5.6,0.1 10.1,4.6 10.1,10.1 z"
   id="path1"
   style="stroke-width:6.37893;stroke-dasharray:none" />
</g>
<text
   x="135.43314"
   y="295.5087"
   font-family="'DejaVu Sans'"
   font-size="82.8034px"
   id="text1-1"
   style="stroke-width:0.766698">40</text>
<path
   d="m 209.11321,187.58859 c -4.21487,-3.11534 -9.34601,-6.04743 -14.66041,-8.24648 l -5.3144,4.21486 c 4.76462,2.19908 9.71251,4.76465 13.92738,8.2465 z m -69.08718,-42.33192 v 5.6809 h 33.71894 v 8.79625 h -28.40454 c -0.36651,4.39812 -1.28279,12.09485 -3.66511,18.87528 h 32.61941 c 0,9.52927 -1.09952,22.72362 -2.93208,26.20547 -0.73303,1.6493 -2.0158,2.0158 -4.03161,2.0158 l -13.19436,-0.18324 1.64929,6.23067 h 12.82785 c 7.87997,0 10.2623,-2.93209 11.91159,-10.99531 1.64929,-8.42973 2.3823,-27.67152 2.19906,-28.77105 h -31.70313 c 0.54976,-2.01581 1.09953,-4.21487 1.46604,-8.06322 h 29.32081 v -19.79155 z m 23.09015,42.8817 c -2.93209,-2.19907 -7.87997,-5.68092 -14.11065,-8.42975 l -5.49765,4.03161 c 5.68092,2.74884 8.9795,4.94788 13.56088,8.42973 z m 24.18967,-42.8817 v 5.6809 h 35.18497 v 8.79625 h -29.87057 c -0.36652,4.39812 -1.46604,12.09485 -3.84837,18.87528 h 34.63523 c -0.18326,13.01112 -2.19906,23.27339 -3.11536,25.6557 -0.733,1.83256 -1.83254,2.56557 -4.21485,2.56557 h -12.82786 l 1.6493,6.23069 h 13.92738 c 3.29859,0 6.59718,-1.46605 8.24647,-4.9479 1.64929,-3.48185 4.58139,-17.959 4.39813,-35.00172 H 198.4844 c 0.91628,-3.66511 1.2828,-5.31439 1.46606,-8.06322 h 30.23708 v -19.79155 z m -45.81378,61.5737 c 4.76464,-1.28277 20.15805,-6.23067 28.22129,-9.89576 l -2.0158,-5.49767 c -14.66042,5.86418 -23.09015,8.06324 -28.22129,9.16276 z m 46.36354,-0.3665 c 4.39812,-1.2828 19.24179,-5.49766 29.32082,-10.6288 l -2.19907,-5.49766 c -9.89576,4.39813 -20.3413,7.51345 -29.32081,9.71253 z"
   id="path2"
   style="stroke-width:1.83256" /></svg>
