<?xml version="1.0" encoding="UTF-8"?>
<!-- Generator: Adobe Illustrator 22.1.0, SVG Export Plug-In . SVG Version: 6.00 Build 0)  -->
<svg version="1.1" id="レイヤー_1" xmlns="http://www.w3.org/2000/svg" xmlns:xlink="http://www.w3.org/1999/xlink" x="0px" y="0px" viewBox="0 0 170.1 170.1" style="enable-background:new 0 0 170.1 170.1;" xml:space="preserve">
<style type="text/css">
	.st0{fill:none;stroke:#000000;stroke-width:1.5475;}
	.st1{display:none;}
	.st2{font-family:'Swiss721BT-Roman';}
	.st3{font-size:55px;}
	.st4{letter-spacing:1;}
</style>
<g>
	<rect x="28.3" y="16.5" class="st0" width="113.4" height="137.2"/>
	<line class="st0" x1="28.3" y1="51.5" x2="141.7" y2="51.5"/>
	<path class="st0" d="M129.1,32.9c0,5.6-4.5,10.1-10.1,10.1c-5.6,0-10.1-4.5-10.1-10.1c0-5.6,4.5-10.1,10.1-10.1   C124.6,22.9,129.1,27.4,129.1,32.9z"/>
</g>
<text transform="matrix(1 0 0 1 53.4679 112.1897)" class="st1 st2 st3 st4">95</text>
<g>
	<path d="M55.4,102.7h5c0.1,1.9,0.7,3.4,1.9,4.5c1.2,1.1,2.9,1.6,5,1.6c2.8,0,4.9-1.1,6.4-3.4c1.5-2.3,2.4-5.8,2.6-10.4   c-1.1,1.4-2.4,2.4-3.9,3.2c-1.5,0.7-3.3,1.1-5.2,1.1c-3.6,0-6.6-1.2-8.8-3.5c-2.2-2.3-3.4-5.4-3.4-9.2c0-3.8,1.2-6.9,3.6-9.3   c2.4-2.4,5.5-3.5,9.4-3.5c4.5,0,7.9,1.5,10.3,4.6c2.4,3.1,3.6,7.6,3.6,13.4c0,6.9-1.3,12.2-3.8,15.9c-2.5,3.7-6.1,5.6-10.8,5.6   c-3.6,0-6.5-1-8.6-2.9C56.5,108.5,55.4,106,55.4,102.7z M60.4,86.5c0,2.5,0.7,4.4,2,5.9c1.4,1.5,3.2,2.2,5.4,2.2   c2.5,0,4.4-0.7,5.9-2.2c1.4-1.5,2.1-3.5,2.1-6c0-2.6-0.7-4.6-2.1-6.1c-1.4-1.5-3.3-2.3-5.7-2.3c-2.3,0-4.2,0.8-5.6,2.3   C61.1,81.9,60.4,84,60.4,86.5z"/>
	<path d="M86.5,102.2h5.1c0.3,2,1.1,3.5,2.5,4.7c1.4,1.1,3.1,1.7,5.1,1.7c2.6,0,4.6-0.8,6.2-2.3c1.6-1.6,2.3-3.6,2.3-6.2   c0-2.6-0.8-4.7-2.3-6.2c-1.5-1.5-3.6-2.3-6.2-2.3c-1.5,0-2.8,0.3-4,0.9s-2.3,1.5-3.2,2.6h-4.4l3-20.2H111v4.5H94.3l-1.5,10.3   c0.9-0.8,2-1.4,3.3-1.8s2.6-0.6,4.1-0.6c3.9,0,7.1,1.2,9.4,3.5s3.5,5.4,3.5,9.2c0,4-1.3,7.3-3.8,9.8s-5.8,3.7-9.9,3.7   c-3.6,0-6.6-1-9-3C88.2,108.3,86.8,105.6,86.5,102.2z"/>
</g>
</svg>