<?xml version="1.0" encoding="UTF-8"?>
<!-- Generator: Adobe Illustrator 22.1.0, SVG Export Plug-In . SVG Version: 6.00 Build 0)  -->
<svg version="1.1" id="レイヤー_1" xmlns="http://www.w3.org/2000/svg" xmlns:xlink="http://www.w3.org/1999/xlink" x="0px" y="0px" viewBox="0 0 170.1 170.1" style="enable-background:new 0 0 170.1 170.1;" xml:space="preserve">
<style type="text/css">
	.st0{fill:none;stroke:#000000;stroke-width:1.5475;}
</style>
<g>
	<rect x="28.3" y="16.5" class="st0" width="113.4" height="137.2"/>
	<line class="st0" x1="28.3" y1="51.5" x2="141.7" y2="51.5"/>
	<path class="st0" d="M129.1,32.9c0,5.6-4.5,10.1-10.1,10.1c-5.6,0-10.1-4.5-10.1-10.1c0-5.6,4.5-10.1,10.1-10.1   C124.6,22.9,129.1,27.4,129.1,32.9z"/>
</g>
<g>
	<path d="M82.3,85.8h-5.1c-0.2-2-0.9-3.5-2-4.6c-1.2-1-2.8-1.6-4.9-1.6c-2.8,0-4.9,1.1-6.4,3.4c-1.5,2.3-2.4,5.8-2.6,10.4   c1.1-1.4,2.4-2.4,3.9-3.1c1.5-0.7,3.2-1.1,5.1-1.1c3.7,0,6.6,1.2,8.8,3.5c2.2,2.3,3.4,5.4,3.4,9.2c0,3.8-1.2,6.9-3.6,9.3   c-2.4,2.4-5.5,3.5-9.4,3.5c-4.5,0-7.9-1.6-10.2-4.7c-2.4-3.1-3.6-7.6-3.6-13.4c0-6.9,1.3-12.2,3.8-15.9c2.5-3.7,6.1-5.6,10.7-5.6   c3.6,0,6.5,0.9,8.5,2.8C80.9,79.8,82.1,82.5,82.3,85.8z M77.3,102.1c0-2.5-0.7-4.5-2.1-6c-1.4-1.5-3.2-2.2-5.4-2.2   c-2.5,0-4.5,0.7-5.9,2.2c-1.4,1.5-2.1,3.5-2.1,6s0.7,4.6,2.1,6.1c1.4,1.5,3.3,2.3,5.7,2.3c2.3,0,4.1-0.8,5.5-2.3   C76.6,106.6,77.3,104.6,77.3,102.1z"/>
	<path d="M87.8,95.1c0-6.5,1.1-11.4,3.4-14.8c2.2-3.4,5.5-5,9.8-5c4.3,0,7.6,1.7,9.9,5c2.3,3.4,3.4,8.3,3.4,14.8   c0,6.5-1.1,11.4-3.4,14.7s-5.5,5-9.9,5c-4.3,0-7.6-1.7-9.8-5C88.9,106.4,87.8,101.5,87.8,95.1z M93.1,95.1c0,5.3,0.6,9.2,1.9,11.6   c1.3,2.4,3.3,3.6,6,3.6c2.8,0,4.8-1.2,6-3.6c1.3-2.4,1.9-6.3,1.9-11.6c0-5.4-0.6-9.2-1.9-11.7c-1.3-2.4-3.3-3.6-6-3.6   c-2.7,0-4.7,1.2-6,3.7C93.7,85.9,93.1,89.8,93.1,95.1z"/>
</g>
</svg>