<?xml version="1.0" encoding="UTF-8"?>
<!-- Generator: Adobe Illustrator 22.1.0, SVG Export Plug-In . SVG Version: 6.00 Build 0)  -->
<svg version="1.1" id="レイヤー_1" xmlns="http://www.w3.org/2000/svg" xmlns:xlink="http://www.w3.org/1999/xlink" x="0px" y="0px" viewBox="0 0 170.1 170.1" style="enable-background:new 0 0 170.1 170.1;" xml:space="preserve">
<style type="text/css">
	.st0{fill:none;stroke:#000000;stroke-width:1.5475;}
</style>
<g>
	<path d="M73.6,43.7c0.2,0.2,0.3,0.4,0.3,0.6c0,0.2-0.2,0.4-0.5,0.4c-0.3,0-0.7-0.1-1-0.2c-2.3,0.8-4.7,1.2-7.1,1.5   c0,1.1,0,2.2,0.1,3.3l1.8,0c1.9,0,5.3-0.3,6.7-0.4v2.8c-1.2,0-4.9-0.1-6.7,0l-1.7,0c0,1.1,0,2.2,0.1,3.4l3.3-0.1   c2.6-0.1,6.2-0.2,7.9-0.4v3c-2.2-0.2-5.3-0.1-7.9,0l-3.2,0.1c0,2.2,0.1,4.4,0.1,6.7c0,1.8-0.5,2.9-3,3.2c-0.9,0.1-2.1,0.1-2.9-0.1   l-1.4-2.9c0.6,0.1,2.4,0.2,3.1,0.2c0.8,0,1.2-0.2,1.2-1.3c0-1.7-0.1-3.8-0.1-5.6l-2.2,0.1c-3,0.1-6.6,0.1-8.5,0.2v-2.8   c2,0.1,5.7,0.1,8.5,0l2.2-0.1c0-1.1-0.1-2.2-0.1-3.4l-1.8,0.1c-1.9,0.1-5.1,0.2-6.6,0.3v-2.8c1.3,0.1,4.7,0.2,6.6,0.1l1.8,0   c0-1,0-2,0-3.1c-2.8,0.2-5.7,0.3-8.5,0.1l-1.3-2.7c1.2,0,4.9,0.2,6.6,0.2c2.1,0,7.3-0.2,12.5-2.2L73.6,43.7z"/>
	<path d="M95.6,42.7c0.2,0,0.5,0.1,0.5,0.3c0,0.3-0.4,0.5-0.7,0.7c-0.1,1-0.1,2.6-0.1,3.8h0.8c1.5,0,4.2-0.2,5.5-0.3v2.7   c-1.2-0.1-3.7-0.1-5.6-0.1h-0.7v4h1.2c1.7,0,4.2-0.1,6.2-0.2v2.8c-2.1-0.2-4.5-0.3-6.2-0.3h-0.3v7.4c0,1,0.2,1.2,0.8,1.2h2.1   c1.1,0,1.3-1.8,1.4-3.7l2.5,1.9c-0.6,2.5-1.2,4.3-2.8,4.3h-4.1c-2,0-2.6-0.8-2.6-3.5V56h-1.8c-0.2,5.3-2.5,9.6-7.6,11.4l-2.2-2.1   c5.2-1.7,6.6-3.9,7.1-9.3c-1.5,0-3.6,0.1-4.9,0.2v-2.8c1.5,0.2,4.6,0.2,6.1,0.2h2.3v-4h-4.3c-0.6,1.2-1.4,2.2-2.3,3.2l-2.7-1.1   c2.4-2.1,3.8-5.1,4.2-8.3l2.7,0.7c0.3,0.1,0.6,0.1,0.6,0.4c0,0.2-0.1,0.4-0.7,0.6c-0.2,0.7-0.5,1.5-0.7,2.2h3.3   c0-1.7-0.1-3.9-0.1-5L95.6,42.7z M80.5,42.5c1.7,0.5,3.1,1.5,4.5,2.7l-1.2,2.3c-1.3-1.3-2.8-2.2-4.5-2.8L80.5,42.5z M78.5,49.5   c1.6,0.5,3.1,1.4,4.4,2.5l-1.1,2.4c-1.2-1.2-2.8-2.1-4.4-2.5L78.5,49.5z M84.4,57.3c-1,3.6-2.9,6.7-4.4,9c0.1,0.8,0,1-0.3,1   c-0.2,0-0.4-0.3-0.5-0.5l-1.8-1.9c2.4-2.9,4.2-6.2,5.3-9.8L84.4,57.3z"/>
	<path d="M103.3,55.1c7.9-2.6,13.1-6.9,17-12.4l2.6,1.9c0.2,0.1,0.3,0.3,0.3,0.6c0,0.3-0.3,0.6-1.4,0.5c-1.6,1.8-3.8,3.9-5.6,5.4   v7.5c0,2.6,0.2,5.2,0.3,7.8h-3c0.1-2.7,0.2-5.3,0.2-8V53c-2.5,1.8-4.8,3.2-7.7,4.3L103.3,55.1z"/>
	<polyline class="st0" points="155.9,57.4 128.6,128.3 41.4,128.3 14.2,57.4  "/>
	<path class="st0" d="M19.1,71.9c16.6,0,16.6,8.4,33.2,8.4c17,0,17-8.4,34-8.4c16.4,0,16.4,8.4,32.8,8.4c15.9,0,15.9-8.4,31.8-8.4"/>
</g>
<g>
	<path d="M64.8,105.2H68c0,1.7,0.5,3,1.4,4c0.9,0.9,2.2,1.4,3.8,1.4c1.6,0,2.9-0.4,3.8-1.3s1.4-2,1.4-3.5c0-1.4-0.5-2.4-1.4-3.2   c-0.9-0.8-2.2-1.1-3.8-1.1c-0.3,0-0.9,0-1.6,0.1l-0.1,0l0-2.8c0.1,0,0.3,0,0.5,0c0.2,0,0.4,0,0.6,0c1.8,0,3-0.3,3.8-0.9   c0.8-0.6,1.2-1.6,1.2-2.9c0-1.2-0.4-2.2-1.1-2.8c-0.7-0.7-1.8-1-3.2-1c-1.5,0-2.7,0.4-3.5,1.3c-0.8,0.9-1.2,2.2-1.2,3.9h-3.1v-0.2   c0-2.4,0.7-4.3,2.1-5.7c1.4-1.4,3.2-2.1,5.6-2.1c2.5,0,4.4,0.6,5.8,1.7c1.4,1.2,2.1,2.8,2.1,4.8c0,1.2-0.3,2.2-0.8,3   c-0.5,0.8-1.3,1.5-2.3,1.9c1.3,0.5,2.3,1.2,2.9,2.2c0.7,1,1,2.3,1,3.8c0,2.3-0.8,4.2-2.4,5.6c-1.6,1.4-3.7,2.1-6.4,2.1   c-2.5,0-4.5-0.7-6-2.2c-1.5-1.5-2.2-3.5-2.2-5.9V105.2z"/>
	<path d="M86.3,101c0-4.1,0.7-7.3,2.1-9.4c1.4-2.1,3.5-3.2,6.3-3.2c2.8,0,4.9,1.1,6.3,3.2c1.4,2.1,2.2,5.3,2.2,9.4   c0,4.1-0.7,7.2-2.1,9.4c-1.4,2.1-3.5,3.2-6.3,3.2c-2.7,0-4.8-1.1-6.3-3.2C87,108.2,86.3,105.1,86.3,101z M89.6,101   c0,3.4,0.4,5.8,1.2,7.4c0.8,1.5,2.1,2.3,3.8,2.3c1.8,0,3-0.8,3.8-2.3c0.8-1.5,1.2-4,1.2-7.4c0-3.4-0.4-5.9-1.2-7.4   c-0.8-1.5-2.1-2.3-3.8-2.3c-1.7,0-3,0.8-3.8,2.3C90,95.1,89.6,97.6,89.6,101z"/>
</g>
</svg>