<?xml version="1.0" encoding="UTF-8" standalone="no"?>
<!-- Created with Inkscape (http://www.inkscape.org/) -->

<svg
   version="1.0"
   x="0.0000000"
   y="0.0000000"
   width="375.00000"
   height="375.00000"
   id="svg1"
   sodipodi:docname="wash_30_hand.svg"
   xml:space="preserve"
   inkscape:version="1.3.2 (091e20ef0f, 2023-11-25, custom)"
   xmlns:inkscape="http://www.inkscape.org/namespaces/inkscape"
   xmlns:sodipodi="http://sodipodi.sourceforge.net/DTD/sodipodi-0.dtd"
   xmlns="http://www.w3.org/2000/svg"
   xmlns:svg="http://www.w3.org/2000/svg"><sodipodi:namedview
     id="namedview1"
     pagecolor="#ffffff"
     bordercolor="#000000"
     borderopacity="0.25"
     inkscape:showpageshadow="2"
     inkscape:pageopacity="0.0"
     inkscape:pagecheckerboard="0"
     inkscape:deskcolor="#d1d1d1"
     inkscape:zoom="1.5141513"
     inkscape:cx="232.47347"
     inkscape:cy="177.9875"
     inkscape:window-width="1920"
     inkscape:window-height="1012"
     inkscape:window-x="0"
     inkscape:window-y="32"
     inkscape:window-maximized="1"
     inkscape:current-layer="g2806"
     showgrid="false"><inkscape:grid
       id="grid3"
       units="px"
       originx="0"
       originy="0"
       spacingx="1"
       spacingy="1"
       empcolor="#0099e5"
       empopacity="0.30196078"
       color="#0099e5"
       opacity="0.14901961"
       empspacing="5"
       dotted="false"
       gridanglex="30"
       gridanglez="30"
       visible="false" /></sodipodi:namedview><defs
     id="defs3"><linearGradient
       id="linearGradient1547"><stop
         style="stop-color:#000000;stop-opacity:1.0000000"
         offset="0.0000000"
         id="stop1548" /><stop
         style="stop-color:#ffffff;stop-opacity:1.0000000"
         offset="1.0000000"
         id="stop1549" /></linearGradient></defs><g
     id="g2806"><path
       d="m 46.779307,145.54748 c 23.458276,0 23.458276,-20.88981 46.916559,-20.88981 23.458254,0 23.458254,20.88981 46.916524,20.88981 23.4583,0 23.4583,-20.88981 46.91655,-20.88981 23.45827,0 23.45827,20.88981 46.91656,20.88981 23.45827,0 23.45827,-20.88981 46.91653,-20.88981 23.45827,0 23.45827,20.88981 46.91655,20.88981"
       style="fill:none;fill-opacity:1;fill-rule:evenodd;stroke:#000000;stroke-width:12.5;stroke-linecap:butt;stroke-linejoin:miter;stroke-miterlimit:4;stroke-opacity:1"
       id="path684" /><path
       d="M 37.456350,106.87084 L 71.853509,278.85663 L 302.16847,278.85663 L 337.60154,106.87084"
       style="fill:none;fill-opacity:1.0000000;fill-rule:evenodd;stroke:#000000;stroke-width:12.500000;stroke-linecap:round;stroke-linejoin:round;stroke-miterlimit:4.0000000;stroke-dashoffset:0.0000000;stroke-opacity:1.0000000"
       id="path685" /><text
       x="118.28871"
       y="247.79277"
       font-family="'DejaVu Sans'"
       font-size="108px"
       id="text1">30</text><path
       d="m 153.46839,44.732569 c 0.48266,0.482658 0.72399,0.965314 0.72399,1.447972 0,0.482657 -0.48266,0.965315 -1.20665,0.965315 -0.72399,0 -1.6893,-0.241329 -2.41328,-0.482658 -5.55056,1.93063 -11.34245,2.895944 -17.13434,3.61993 0,2.654615 0,5.30923 0.24133,7.963846 h 4.34392 c 4.58524,0 12.79042,-0.723986 16.16902,-0.965315 v 6.757203 c -2.89595,0 -11.82511,-0.241329 -16.16902,0 h -4.10259 c 0,2.654615 0,5.30923 0.24132,8.20517 l 7.96385,-0.241319 c 6.27455,-0.241329 14.96238,-0.482658 19.06496,-0.965316 v 7.239858 c -5.30922,-0.482658 -12.79041,-0.241329 -19.06496,0 l -7.72252,0.241329 c 0,5.309226 0.24133,10.618463 0.24133,16.169018 0,4.343921 -1.20664,6.998528 -7.23986,7.722508 -2.17196,0.24133 -5.06789,0.24133 -6.99852,-0.24132 l -3.37861,-6.99853 c 1.44797,0.241329 5.79189,0.482658 7.48119,0.482658 1.93063,0 2.89594,-0.482658 2.89594,-3.137276 0,-4.102582 -0.24132,-9.17049 -0.24132,-13.5144 l -5.30923,0.241328 c -7.23986,0.241329 -15.9277,0.241329 -20.51294,0.482658 v -6.75721 c 4.82657,0.241329 13.75573,0.241329 20.51294,0 l 5.30923,-0.241329 c 0,-2.654608 -0.24133,-5.309226 -0.24133,-8.20517 l -4.34391,0.241329 c -4.58525,0.241329 -12.30777,0.482658 -15.9277,0.723986 v -6.757202 c 3.13727,0.241327 11.34245,0.482656 15.9277,0.241327 h 4.34391 c 0,-2.413286 0,-4.826572 0,-7.481187 -6.7572,0.482657 -13.75573,0.723985 -20.51294,0.241328 l -3.13727,-6.515873 c 2.89594,0 11.8251,0.482656 15.92769,0.482656 5.0679,0 17.61699,-0.482656 30.16609,-5.30923 z"
       id="path1"
       style="stroke-width:2.41329" /><path
       d="m 206.56069,42.319282 c 0.48266,0 1.20665,0.241329 1.20665,0.723986 0,0.723986 -0.96532,1.206644 -1.68931,1.689301 -0.24132,2.413287 -0.24132,6.274545 -0.24132,9.170489 h 1.93063 c 3.61993,0 10.1358,-0.482657 13.27308,-0.723986 v 6.515874 c -2.89595,-0.241329 -8.92916,-0.241329 -13.51441,-0.241329 h -1.6893 v 9.653146 h 2.89594 c 4.10259,0 10.13581,-0.241327 14.96238,-0.482656 v 6.757201 c -5.0679,-0.482658 -10.85979,-0.723987 -14.96238,-0.723987 h -0.72398 v 17.858321 c 0,2.413289 0.48265,2.895947 1.93063,2.895947 h 5.0679 c 2.65461,0 3.13727,-4.343921 3.3786,-8.929161 l 6.03321,4.58524 c -1.44796,6.033223 -2.89593,10.377132 -6.7572,10.377132 h -9.89447 c -4.82657,0 -6.27454,-1.93063 -6.27454,-8.446501 V 74.415992 h -4.34393 c -0.48265,12.790423 -6.03321,23.167557 -18.34097,27.511468 l -5.30923,-5.067898 c 12.54909,-4.102592 15.92769,-9.411818 17.13433,-22.44357 -3.61992,0 -8.68783,0.241329 -11.8251,0.482658 v -6.757201 c 3.61993,0.482658 11.10112,0.482658 14.72105,0.482658 h 5.55056 v -9.653148 h -10.37714 c -1.44797,2.895945 -3.37859,5.309232 -5.55055,7.722518 l -6.51587,-2.654615 c 5.79188,-5.067903 9.17048,-12.307762 10.1358,-20.030279 l 6.51587,1.6893 c 0.72399,0.241329 1.44798,0.241329 1.44798,0.965315 0,0.482658 -0.24133,0.965315 -1.68931,1.447972 -0.48266,1.689301 -1.20664,3.61993 -1.6893,5.309231 h 7.96384 c 0,-4.102588 -0.24132,-9.411818 -0.24132,-12.066433 z m -36.44063,-0.482657 c 4.1026,1.206643 7.4812,3.619929 10.8598,6.515874 l -2.89594,5.550559 c -3.13728,-3.137272 -6.75721,-5.30923 -10.85979,-6.757202 z m -4.82656,16.893007 c 3.86125,1.206642 7.48118,3.378601 10.61846,6.033216 l -2.65462,5.791891 c -2.89595,-2.895947 -6.7572,-5.067905 -10.61846,-6.03322 z m 14.23838,18.823636 c -2.41328,8.687831 -6.99853,16.169018 -10.61845,21.719573 0.24132,1.930629 0,2.413289 -0.72399,2.413289 -0.48265,0 -0.96531,-0.72399 -1.20664,-1.20665 l -4.34392,-4.585233 c 5.79189,-6.998529 10.1358,-14.962374 12.79042,-23.650215 z"
       id="path2"
       style="stroke-width:2.41329" /><path
       d="m 225.143,72.244032 c 19.06497,-6.274541 31.61406,-16.651674 41.02588,-29.92475 l 6.27454,4.585245 c 0.48266,0.241329 0.72399,0.723986 0.72399,1.447972 0,0.723985 -0.72399,1.447972 -3.37861,1.206643 -3.86125,4.343916 -9.17049,9.411817 -13.5144,13.031747 v 18.099655 c 0,6.274542 0.48266,12.549084 0.72399,18.823626 h -7.23986 c 0.24133,-6.515871 0.48266,-12.790413 0.48266,-19.306284 V 67.176134 c -6.03322,4.343921 -11.58378,7.722516 -18.58231,10.377134 z"
       id="path3"
       style="stroke-width:2.41329" /></g></svg>
