<?xml version="1.0" encoding="UTF-8"?>
<!-- Generator: Adobe Illustrator 22.1.0, SVG Export Plug-In . SVG Version: 6.00 Build 0)  -->
<svg version="1.1" id="レイヤー_1" xmlns="http://www.w3.org/2000/svg" xmlns:xlink="http://www.w3.org/1999/xlink" x="0px" y="0px" viewBox="0 0 170.1 170.1" style="enable-background:new 0 0 170.1 170.1;" xml:space="preserve">
<style type="text/css">
	.st0{fill:none;stroke:#000000;stroke-width:1.5475;}
</style>
<g>
	<rect x="28.3" y="16.5" class="st0" width="113.4" height="137.2"/>
	<line class="st0" x1="28.3" y1="51.5" x2="141.7" y2="51.5"/>
	<path class="st0" d="M129.1,32.9c0,5.6-4.5,10.1-10.1,10.1c-5.6,0-10.1-4.5-10.1-10.1c0-5.6,4.5-10.1,10.1-10.1   C124.6,22.9,129.1,27.4,129.1,32.9z"/>
</g>
<g>
	<path d="M72.5,112.2v-9.5H55.8v-4.8l16.7-23.1h5v23.5h5.5v4.4h-5.5v9.5H72.5z M60.4,98.3h12.1V81.2L60.4,98.3z"/>
	<path d="M87.8,93.6c0-6.5,1.1-11.4,3.4-14.8c2.2-3.4,5.5-5,9.8-5c4.3,0,7.6,1.7,9.9,5c2.3,3.4,3.4,8.3,3.4,14.8   c0,6.5-1.1,11.4-3.4,14.7s-5.5,5-9.9,5c-4.3,0-7.6-1.7-9.8-5C88.9,104.9,87.8,100,87.8,93.6z M93.1,93.6c0,5.3,0.6,9.2,1.9,11.6   c1.3,2.4,3.3,3.6,6,3.6c2.8,0,4.8-1.2,6-3.6c1.3-2.4,1.9-6.3,1.9-11.6c0-5.4-0.6-9.2-1.9-11.7c-1.3-2.4-3.3-3.6-6-3.6   c-2.7,0-4.7,1.2-6,3.7C93.7,84.4,93.1,88.2,93.1,93.6z"/>
</g>
</svg>