<?xml version="1.0" encoding="UTF-8"?>
<!-- Generator: Adobe Illustrator 22.1.0, SVG Export Plug-In . SVG Version: 6.00 Build 0)  -->
<svg version="1.1" id="レイヤー_1" xmlns="http://www.w3.org/2000/svg" xmlns:xlink="http://www.w3.org/1999/xlink" x="0px" y="0px" viewBox="0 0 170.1 170.1" style="enable-background:new 0 0 170.1 170.1;" xml:space="preserve">
<style type="text/css">
	.st0{fill:none;stroke:#000000;stroke-width:1.5475;}
</style>
<g>
	<rect x="28.3" y="16.5" class="st0" width="113.4" height="137.2"/>
	<line class="st0" x1="28.3" y1="51.5" x2="141.7" y2="51.5"/>
	<path class="st0" d="M129.1,32.9c0,5.6-4.5,10.1-10.1,10.1c-5.6,0-10.1-4.5-10.1-10.1s4.5-10.1,10.1-10.1   C124.6,22.9,129.1,27.4,129.1,32.9z"/>
	<path d="M96.4,86.9c-2.3-1.7-5.1-3.3-8-4.5l-2.9,2.3c2.6,1.2,5.3,2.6,7.6,4.5L96.4,86.9z M58.7,63.8v3.1h18.4v4.8H61.6   c-0.2,2.4-0.7,6.6-2,10.3h17.8c0,5.2-0.6,12.4-1.6,14.3c-0.4,0.9-1.1,1.1-2.2,1.1l-7.2-0.1l0.9,3.4h7c4.3,0,5.6-1.6,6.5-6   c0.9-4.6,1.3-15.1,1.2-15.7H64.7c0.3-1.1,0.6-2.3,0.8-4.4h16V63.8H58.7z M71.3,87.2c-1.6-1.2-4.3-3.1-7.7-4.6l-3,2.2   c3.1,1.5,4.9,2.7,7.4,4.6L71.3,87.2z M84.5,63.8v3.1h19.2v4.8H87.4c-0.2,2.4-0.8,6.6-2.1,10.3h18.9c-0.1,7.1-1.2,12.7-1.7,14   c-0.4,1-1,1.4-2.3,1.4l-7,0l0.9,3.4h7.6c1.8,0,3.6-0.8,4.5-2.7c0.9-1.9,2.5-9.8,2.4-19.1h-18c0.5-2,0.7-2.9,0.8-4.4h16.5V63.8H84.5   z M59.5,97.4c2.6-0.7,11-3.4,15.4-5.4l-1.1-3c-8,3.2-12.6,4.4-15.4,5L59.5,97.4z M84.8,97.2c2.4-0.7,10.5-3,16-5.8l-1.2-3   c-5.4,2.4-11.1,4.1-16,5.3L84.8,97.2z"/>
</g>
<g>
	<path d="M73.6,141.5v-7.3H60.6v-3.7l12.9-17.8h3.9v18.2h4.2v3.4h-4.2v7.3H73.6z M64.2,130.8h9.4v-13.2L64.2,130.8z"/>
	<path d="M87,127.1c0-5,0.9-8.8,2.6-11.4c1.7-2.6,4.3-3.9,7.6-3.9c3.3,0,5.9,1.3,7.6,3.9c1.7,2.6,2.6,6.4,2.6,11.4   c0,5-0.9,8.8-2.6,11.4c-1.7,2.6-4.3,3.9-7.7,3.9c-3.3,0-5.9-1.3-7.6-3.9C87.8,135.9,87,132.1,87,127.1z M91,127.1   c0,4.1,0.5,7.1,1.5,9c1,1.9,2.5,2.8,4.7,2.8c2.1,0,3.7-0.9,4.7-2.8c1-1.9,1.5-4.9,1.5-9c0-4.1-0.5-7.1-1.5-9   c-1-1.9-2.5-2.8-4.7-2.8c-2.1,0-3.7,0.9-4.7,2.8C91.5,120,91,123,91,127.1z"/>
</g>
</svg>